<?xml version="1.0" encoding="UTF-8" standalone="no"?>
<!-- Created with Inkscape (http://www.inkscape.org/) -->

<svg
   xmlns:dc="http://purl.org/dc/elements/1.1/"
   xmlns:cc="http://creativecommons.org/ns#"
   xmlns:rdf="http://www.w3.org/1999/02/22-rdf-syntax-ns#"
   xmlns:svg="http://www.w3.org/2000/svg"
   xmlns="http://www.w3.org/2000/svg"
   xmlns:xlink="http://www.w3.org/1999/xlink"
   xmlns:sodipodi="http://sodipodi.sourceforge.net/DTD/sodipodi-0.dtd"
   xmlns:inkscape="http://www.inkscape.org/namespaces/inkscape"
   width="1569.4108"
   height="486.07443"
   id="svg2"
   version="1.1"
   inkscape:version="0.48.4 r9939"
   sodipodi:docname="AAV_DNA_contaminants.svg"
   inkscape:export-filename="H:\adrien\Pictures\AAV\Contaminants.png"
   inkscape:export-xdpi="200.01729"
   inkscape:export-ydpi="200.01729">
  <defs
     id="defs4">
    <linearGradient
       id="linearGradient6181">
      <stop
         style="stop-color:#000000;stop-opacity:1;"
         offset="0"
         id="stop6183" />
      <stop
         style="stop-color:#8e8e8e;stop-opacity:0;"
         offset="1"
         id="stop6185" />
    </linearGradient>
    <marker
       inkscape:stockid="TriangleOutM"
       orient="auto"
       refY="0"
       refX="0"
       id="TriangleOutM"
       style="overflow:visible">
      <path
         id="path4193"
         d="m 5.77,0 -8.65,5 0,-10 8.65,5 z"
         style="fill-rule:evenodd;stroke:#000000;stroke-width:1pt"
         transform="scale(0.4,0.4)"
         inkscape:connector-curvature="0" />
    </marker>
    <marker
       inkscape:stockid="TriangleOutS"
       orient="auto"
       refY="0"
       refX="0"
       id="TriangleOutS"
       style="overflow:visible">
      <path
         id="path4196"
         d="m 5.77,0 -8.65,5 0,-10 8.65,5 z"
         style="fill-rule:evenodd;stroke:#000000;stroke-width:1pt"
         transform="scale(0.2,0.2)"
         inkscape:connector-curvature="0" />
    </marker>
    <marker
       inkscape:stockid="Arrow2Mend"
       orient="auto"
       refY="0"
       refX="0"
       id="Arrow2Mend"
       style="overflow:visible">
      <path
         id="path4075"
         style="fill-rule:evenodd;stroke-width:0.625;stroke-linejoin:round"
         d="M 8.7185878,4.0337352 -2.2072895,0.01601326 8.7185884,-4.0017078 c -1.7454984,2.3720609 -1.7354408,5.6174519 -6e-7,8.035443 z"
         transform="scale(-0.6,-0.6)"
         inkscape:connector-curvature="0" />
    </marker>
    <marker
       inkscape:stockid="Arrow2Lend"
       orient="auto"
       refY="0"
       refX="0"
       id="Arrow2Lend"
       style="overflow:visible">
      <path
         id="path4069"
         style="fill-rule:evenodd;stroke-width:0.625;stroke-linejoin:round"
         d="M 8.7185878,4.0337352 -2.2072895,0.01601326 8.7185884,-4.0017078 c -1.7454984,2.3720609 -1.7354408,5.6174519 -6e-7,8.035443 z"
         transform="matrix(-1.1,0,0,-1.1,-1.1,0)"
         inkscape:connector-curvature="0" />
    </marker>
    <inkscape:perspective
       sodipodi:type="inkscape:persp3d"
       inkscape:vp_x="0 : 526.18109 : 1"
       inkscape:vp_y="0 : 1000 : 0"
       inkscape:vp_z="744.09448 : 526.18109 : 1"
       inkscape:persp3d-origin="372.04724 : 350.78739 : 1"
       id="perspective3766" />
    <inkscape:perspective
       id="perspective3032"
       inkscape:persp3d-origin="0.5 : 0.33333333 : 1"
       inkscape:vp_z="1 : 0.5 : 1"
       inkscape:vp_y="0 : 1000 : 0"
       inkscape:vp_x="0 : 0.5 : 1"
       sodipodi:type="inkscape:persp3d" />
    <inkscape:perspective
       id="perspective3843"
       inkscape:persp3d-origin="0.5 : 0.33333333 : 1"
       inkscape:vp_z="1 : 0.5 : 1"
       inkscape:vp_y="0 : 1000 : 0"
       inkscape:vp_x="0 : 0.5 : 1"
       sodipodi:type="inkscape:persp3d" />
    <inkscape:perspective
       id="perspective3865"
       inkscape:persp3d-origin="0.5 : 0.33333333 : 1"
       inkscape:vp_z="1 : 0.5 : 1"
       inkscape:vp_y="0 : 1000 : 0"
       inkscape:vp_x="0 : 0.5 : 1"
       sodipodi:type="inkscape:persp3d" />
    <inkscape:perspective
       id="perspective3887"
       inkscape:persp3d-origin="0.5 : 0.33333333 : 1"
       inkscape:vp_z="1 : 0.5 : 1"
       inkscape:vp_y="0 : 1000 : 0"
       inkscape:vp_x="0 : 0.5 : 1"
       sodipodi:type="inkscape:persp3d" />
    <inkscape:perspective
       id="perspective3909"
       inkscape:persp3d-origin="0.5 : 0.33333333 : 1"
       inkscape:vp_z="1 : 0.5 : 1"
       inkscape:vp_y="0 : 1000 : 0"
       inkscape:vp_x="0 : 0.5 : 1"
       sodipodi:type="inkscape:persp3d" />
    <inkscape:perspective
       id="perspective3934"
       inkscape:persp3d-origin="0.5 : 0.33333333 : 1"
       inkscape:vp_z="1 : 0.5 : 1"
       inkscape:vp_y="0 : 1000 : 0"
       inkscape:vp_x="0 : 0.5 : 1"
       sodipodi:type="inkscape:persp3d" />
    <inkscape:perspective
       id="perspective3956"
       inkscape:persp3d-origin="0.5 : 0.33333333 : 1"
       inkscape:vp_z="1 : 0.5 : 1"
       inkscape:vp_y="0 : 1000 : 0"
       inkscape:vp_x="0 : 0.5 : 1"
       sodipodi:type="inkscape:persp3d" />
    <inkscape:perspective
       id="perspective3983"
       inkscape:persp3d-origin="0.5 : 0.33333333 : 1"
       inkscape:vp_z="1 : 0.5 : 1"
       inkscape:vp_y="0 : 1000 : 0"
       inkscape:vp_x="0 : 0.5 : 1"
       sodipodi:type="inkscape:persp3d" />
    <inkscape:perspective
       id="perspective4005"
       inkscape:persp3d-origin="0.5 : 0.33333333 : 1"
       inkscape:vp_z="1 : 0.5 : 1"
       inkscape:vp_y="0 : 1000 : 0"
       inkscape:vp_x="0 : 0.5 : 1"
       sodipodi:type="inkscape:persp3d" />
    <inkscape:perspective
       id="perspective4030"
       inkscape:persp3d-origin="0.5 : 0.33333333 : 1"
       inkscape:vp_z="1 : 0.5 : 1"
       inkscape:vp_y="0 : 1000 : 0"
       inkscape:vp_x="0 : 0.5 : 1"
       sodipodi:type="inkscape:persp3d" />
    <inkscape:perspective
       id="perspective4241"
       inkscape:persp3d-origin="0.5 : 0.33333333 : 1"
       inkscape:vp_z="1 : 0.5 : 1"
       inkscape:vp_y="0 : 1000 : 0"
       inkscape:vp_x="0 : 0.5 : 1"
       sodipodi:type="inkscape:persp3d" />
    <marker
       inkscape:stockid="TriangleOutS"
       orient="auto"
       refY="0"
       refX="0"
       id="TriangleOutS-4"
       style="overflow:visible">
      <path
         inkscape:connector-curvature="0"
         id="path4196-8"
         d="m 5.77,0 -8.65,5 0,-10 8.65,5 z"
         style="fill-rule:evenodd;stroke:#000000;stroke-width:1pt"
         transform="scale(0.2,0.2)" />
    </marker>
    <marker
       inkscape:stockid="TriangleOutS"
       orient="auto"
       refY="0"
       refX="0"
       id="TriangleOutS-2"
       style="overflow:visible">
      <path
         inkscape:connector-curvature="0"
         id="path4196-4"
         d="m 5.77,0 -8.65,5 0,-10 8.65,5 z"
         style="fill-rule:evenodd;stroke:#000000;stroke-width:1pt"
         transform="scale(0.2,0.2)" />
    </marker>
    <marker
       inkscape:stockid="TriangleOutS"
       orient="auto"
       refY="0"
       refX="0"
       id="TriangleOutS-5"
       style="overflow:visible">
      <path
         inkscape:connector-curvature="0"
         id="path4196-1"
         d="m 5.77,0 -8.65,5 0,-10 8.65,5 z"
         style="fill-rule:evenodd;stroke:#000000;stroke-width:1pt"
         transform="scale(0.2,0.2)" />
    </marker>
    <marker
       inkscape:stockid="TriangleOutS"
       orient="auto"
       refY="0"
       refX="0"
       id="TriangleOutS-1"
       style="overflow:visible">
      <path
         inkscape:connector-curvature="0"
         id="path4196-15"
         d="m 5.77,0 -8.65,5 0,-10 8.65,5 z"
         style="fill-rule:evenodd;stroke:#000000;stroke-width:1pt"
         transform="scale(0.2,0.2)" />
    </marker>
    <marker
       inkscape:stockid="TriangleOutS"
       orient="auto"
       refY="0"
       refX="0"
       id="TriangleOutS-7"
       style="overflow:visible">
      <path
         inkscape:connector-curvature="0"
         id="path4196-6"
         d="m 5.77,0 -8.65,5 0,-10 8.65,5 z"
         style="fill-rule:evenodd;stroke:#000000;stroke-width:1pt"
         transform="scale(0.2,0.2)" />
    </marker>
    <marker
       inkscape:stockid="TriangleOutM"
       orient="auto"
       refY="0"
       refX="0"
       id="TriangleOutM-4"
       style="overflow:visible">
      <path
         inkscape:connector-curvature="0"
         id="path4193-2"
         d="m 5.77,0 -8.65,5 0,-10 8.65,5 z"
         style="fill-rule:evenodd;stroke:#000000;stroke-width:1pt"
         transform="scale(0.4,0.4)" />
    </marker>
    <marker
       inkscape:stockid="TriangleOutM"
       orient="auto"
       refY="0"
       refX="0"
       id="marker5718"
       style="overflow:visible">
      <path
         inkscape:connector-curvature="0"
         id="path5720"
         d="m 5.77,0 -8.65,5 0,-10 8.65,5 z"
         style="fill-rule:evenodd;stroke:#000000;stroke-width:1pt"
         transform="scale(0.4,0.4)" />
    </marker>
    <marker
       inkscape:stockid="TriangleOutM"
       orient="auto"
       refY="0"
       refX="0"
       id="TriangleOutM-2"
       style="overflow:visible">
      <path
         inkscape:connector-curvature="0"
         id="path4193-1"
         d="m 5.77,0 -8.65,5 0,-10 8.65,5 z"
         style="fill-rule:evenodd;stroke:#000000;stroke-width:1pt"
         transform="scale(0.4,0.4)" />
    </marker>
    <radialGradient
       inkscape:collect="always"
       xlink:href="#linearGradient6181"
       id="radialGradient6187"
       cx="-299.28571"
       cy="206.23735"
       fx="-299.28571"
       fy="206.23735"
       r="133.57143"
       gradientUnits="userSpaceOnUse" />
  </defs>
  <sodipodi:namedview
     id="base"
     pagecolor="#ffffff"
     bordercolor="#666666"
     borderopacity="1.0"
     inkscape:pageopacity="0.0"
     inkscape:pageshadow="2"
     inkscape:zoom="0.45522057"
     inkscape:cx="803.45454"
     inkscape:cy="115.53472"
     inkscape:document-units="px"
     inkscape:current-layer="layer1"
     showgrid="false"
     borderlayer="true"
     showguides="true"
     inkscape:guide-bbox="true"
     inkscape:window-width="1364"
     inkscape:window-height="718"
     inkscape:window-x="0"
     inkscape:window-y="0"
     inkscape:window-maximized="1"
     fit-margin-top="5"
     fit-margin-left="20"
     fit-margin-right="20"
     fit-margin-bottom="5" />
  <metadata
     id="metadata7">
    <rdf:RDF>
      <cc:Work
         rdf:about="">
        <dc:format>image/svg+xml</dc:format>
        <dc:type
           rdf:resource="http://purl.org/dc/dcmitype/StillImage" />
        <dc:title />
      </cc:Work>
    </rdf:RDF>
  </metadata>
  <g
     inkscape:label="Layer 1"
     inkscape:groupmode="layer"
     id="layer1"
     transform="translate(1183.6874,342.36017)">
    <rect
       style="opacity:0.62019228;color:#000000;fill:none;stroke:#000000;stroke-width:6.56919289;stroke-linecap:round;stroke-miterlimit:4;stroke-opacity:1;stroke-dasharray:6.56919287, 13.13838576;stroke-dashoffset:0;marker:none;visibility:visible;display:inline;overflow:visible;enable-background:accumulate"
       id="rect6173"
       width="766.43402"
       height="415.14511"
       x="-403.99527"
       y="-279.71545"
       rx="23.233507"
       ry="23.233509" />
    <path
       transform="translate(-356.99509,-278.38023)"
       d="m -165.71428,206.23735 c 0,73.76946 -59.80196,133.57143 -133.57143,133.57143 -73.76946,0 -133.57142,-59.80197 -133.57142,-133.57143 0,-73.76946 59.80196,-133.571426 133.57142,-133.571426 73.76947,0 133.57143,59.801966 133.57143,133.571426 z"
       sodipodi:ry="133.57143"
       sodipodi:rx="133.57143"
       sodipodi:cy="206.23735"
       sodipodi:cx="-299.28571"
       id="path3236"
       style="opacity:0.62019228;color:#000000;fill:#4d4d4d;fill-opacity:1;fill-rule:evenodd;stroke:none;stroke-width:2;marker:none;visibility:visible;display:inline;overflow:visible;enable-background:accumulate"
       sodipodi:type="arc" />
    <path
       d="M 210.11173,87.495325 178.97832,101.01388 151.7042,80.810829 155.5635,47.089224 186.69691,33.570669 213.97103,53.77372 z"
       inkscape:randomized="0"
       inkscape:rounded="0"
       inkscape:flatsided="true"
       sodipodi:arg2="1.1611476"
       sodipodi:arg1="0.6375488"
       sodipodi:r2="29.394398"
       sodipodi:r1="33.941727"
       sodipodi:cy="67.292274"
       sodipodi:cx="182.83762"
       sodipodi:sides="6"
       id="path3832-8"
       style="fill:#e4e4e4;fill-opacity:1;stroke:#000000;stroke-width:3;stroke-linecap:round;stroke-linejoin:round;stroke-miterlimit:4;stroke-opacity:0.87301588;stroke-dasharray:none;marker-start:none;marker-mid:none;marker-end:none"
       sodipodi:type="star"
       transform="translate(-917.27719,-173.66983)" />
    <path
       d="M 210.11173,87.495325 178.97832,101.01388 151.7042,80.810829 155.5635,47.089224 186.69691,33.570669 213.97103,53.77372 z"
       inkscape:randomized="0"
       inkscape:rounded="0"
       inkscape:flatsided="true"
       sodipodi:arg2="1.1611476"
       sodipodi:arg1="0.6375488"
       sodipodi:r2="29.394398"
       sodipodi:r1="33.941727"
       sodipodi:cy="67.292274"
       sodipodi:cx="182.83762"
       sodipodi:sides="6"
       id="path3832-01"
       style="fill:#e4e4e4;fill-opacity:1;stroke:#000000;stroke-width:3;stroke-linecap:round;stroke-linejoin:round;stroke-miterlimit:4;stroke-opacity:0.87301588;stroke-dasharray:3, 6;stroke-dashoffset:0;marker-start:none;marker-mid:none;marker-end:none"
       sodipodi:type="star"
       transform="matrix(0.00469,-0.999989,0.999989,0.00469,-789.19549,153.32417)" />
    <g
       transform="translate(-2365.9381,-2026.0301)"
       id="g3270">
      <path
         transform="translate(1541.4881,1969.4684)"
         sodipodi:type="star"
         style="fill:#e4e4e4;fill-opacity:1;stroke:#1f1f1f;stroke-width:3;stroke-linecap:round;stroke-linejoin:round;stroke-miterlimit:4;stroke-opacity:1;stroke-dasharray:none;marker-start:none;marker-mid:none;marker-end:none"
         id="path3832-53"
         sodipodi:sides="6"
         sodipodi:cx="182.83762"
         sodipodi:cy="67.292274"
         sodipodi:r1="33.941727"
         sodipodi:r2="29.394398"
         sodipodi:arg1="0.6375488"
         sodipodi:arg2="1.1611476"
         inkscape:flatsided="true"
         inkscape:rounded="0"
         inkscape:randomized="0"
         d="M 210.11173,87.495325 178.97832,101.01388 151.7042,80.810829 155.5635,47.089224 186.69691,33.570669 213.97103,53.77372 z" />
      <path
         style="fill:none;stroke:#c00000;stroke-width:3;stroke-linecap:round;stroke-linejoin:round;stroke-miterlimit:4;stroke-opacity:1;stroke-dasharray:none"
         id="path4999"
         d="m 1723.5804,2051.4223 c 0.091,0.4762 0.3365,0.8792 0.6072,1.2733 0.709,0.8874 1.6415,1.5572 2.5235,2.2599 0.9744,0.8099 2.0651,1.4547 3.2186,1.9709 1.0163,0.4471 2.088,0.4819 3.1748,0.4157 0.905,-0.07 1.7472,-0.3595 2.5465,-0.7747 -0.042,0.017 -0.1563,0.085 -0.126,0.051 0.3605,-0.3999 0.6709,-0.5746 0.9509,-1.0787 0.2477,-0.591 0.097,-1.2035 -0.1067,-1.7813 -0.3947,-0.8894 -0.8736,-1.7389 -1.3742,-2.5722 -0.6106,-0.987 -1.1397,-2.0151 -1.5923,-3.0829 -0.3676,-0.9003 -0.6113,-1.8351 -0.6168,-2.8089 0.024,-0.8142 0.3197,-1.5594 0.7205,-2.2555 0.4354,-0.7424 1.0956,-1.2619 1.825,-1.6924 0.9719,-0.5852 2.0363,-0.9775 3.1053,-1.3421 1.0156,-0.2915 2.0193,-0.6122 2.9858,-1.0409 0.8664,-0.3606 1.59,-0.9194 2.2586,-1.5697 0.7381,-0.7567 1.1238,-1.7108 1.359,-2.7222 0.1895,-0.9042 0.2,-1.7923 -0.1507,-2.6518 -0.4227,-0.8742 -1.159,-1.476 -1.972,-1.9681 -1.1304,-0.5888 -2.3678,-0.8679 -3.62,-1.0422 -1.6098,-0.2189 -3.2286,-0.2288 -4.8471,-0.1399 -1.7859,0.1187 -3.5654,0.3174 -5.3464,0.4926 -1.569,0.1624 -3.1382,0.3108 -4.7161,0.3328 -1.0087,-0.01 -2.0161,-0.1302 -2.9145,-0.6097 -0.3883,-0.2264 -0.6199,-0.4984 -0.3574,-0.9106 0.4765,-0.4902 1.1417,-0.7239 1.7836,-0.9057 0.8642,-0.1948 1.7496,-0.2698 2.63,-0.351 1.0694,-0.083 2.1386,-0.1582 3.2022,-0.2995 0.9208,-0.119 1.7906,-0.4056 2.6093,-0.8358 -0.022,0.01 -0.081,0.03 -0.065,0.015 0.5372,-0.4773 0.9953,-0.852 1.3849,-1.4702 0.409,-0.7696 0.6755,-1.6011 0.8537,-2.4512 0.1595,-0.8538 0.1342,-1.7165 -0.031,-2.5653 -0.1824,-0.7763 -0.5385,-1.4896 -0.9833,-2.1461 -0.399,-0.5686 -0.8938,-1.0329 -1.5158,-1.3418 -0.4636,-0.2112 -0.9303,-0.1878 -1.4135,-0.078 -0.6292,0.179 -1.2145,0.4738 -1.8035,0.752 -0.776,0.3713 -1.592,0.6481 -2.4336,0.8225 -0.7634,0.1338 -1.5354,0.085 -2.2895,-0.074 -0.6887,-0.155 -1.344,-0.4298 -1.991,-0.707 -0.6126,-0.3033 -1.2553,-0.4921 -1.9274,-0.5998 -0.5839,-0.077 -1.1674,-0.03 -1.7163,0.1831 -0.084,0.044 -0.17,0.085 -0.2526,0.1312 -0.06,0.034 0.2169,-0.1557 0.186,-0.094 -0.013,0.026 -0.7403,0.7453 -0.8545,0.8988 -0.3946,0.5659 -0.7025,1.1841 -0.9362,1.8318 -0.1645,0.6948 -0.4515,1.3103 -0.8892,1.8717 -0.5373,0.6277 -1.1991,1.1252 -1.8781,1.5878 -0.8589,0.5726 -1.7832,1.026 -2.7228,1.4466 -0.7567,0.3416 -1.4979,0.7165 -2.2211,1.1233 -0.917,0.5591 -1.718,1.2724 -2.4382,2.0638 -0.6797,0.7415 -1.189,1.5968 -1.5825,2.5172 -0.2599,0.6414 -0.3886,1.3128 -0.3218,2.0017 0.1276,0.6334 0.4537,1.1998 0.7856,1.7459 0.37,0.6285 0.815,1.2105 1.2877,1.7646 0.442,0.5443 1.0043,0.8887 1.677,1.0606 0.4624,0.1215 0.9393,0.061 1.4108,0.06 0.6262,0 1.2524,0.01 1.8787,0.01 0.7582,-0.01 1.5152,0.01 2.2704,0.076 0.6908,0.06 1.3764,0.1903 2.0115,0.473 0.4185,0.2025 0.754,0.4688 0.8963,0.9191 0.088,0.4963 -0.1239,0.9567 -0.3562,1.3821 -0.3345,0.5017 -0.7589,0.9337 -1.1993,1.3423 -0.4968,0.4444 -1.0727,0.7846 -1.6371,1.1342 -0.7467,0.4724 -1.5367,0.8563 -2.3617,1.167 -0.7015,0.2314 -1.2601,0.5542 -1.6324,0.835 -0.6255,0.5137 -1.1188,1.1554 -1.5725,1.8195 -0.462,0.6939 -0.7285,1.4756 -0.9054,2.2836 -0.147,0.8249 -0.1413,1.6624 -0.041,2.4912 0.072,0.7599 0.2993,1.4668 0.6756,2.1269 0.3152,0.4989 0.7121,0.9367 1.2077,1.2582 0.4801,0.1878 1.0032,0.099 1.5014,0.048 0.6097,-0.033 1.1234,0.1566 1.6371,0.4618 0.5333,0.3705 1.0226,0.8056 1.488,1.2577 0.4754,0.5337 0.9262,1.0783 1.4665,1.5489 0.5755,0.5032 1.2621,0.8157 1.9918,1.0181 0.6373,0.1672 1.2396,0.038 1.8337,-0.2059 0.1471,-0.016 0.5883,-0.4462 0.9561,-1.0002 0.3438,-0.5347 0.471,-1.1308 0.5331,-1.7524 0.026,-0.6588 0,-1.3184 -0.023,-1.9771 -0.037,-0.7417 -0.025,-1.4828 0.063,-2.2202 0.1277,-0.7724 0.4524,-1.4881 0.792,-2.1867 0.3659,-0.7249 0.8992,-1.3446 1.4457,-1.9382 0.6075,-0.6355 1.2803,-1.2043 1.9261,-1.8 0.8055,-0.6925 1.5411,-1.4568 2.2338,-2.2607 0.6734,-0.7928 1.2574,-1.6522 1.7492,-2.5677 0.4165,-0.781 0.6382,-1.6262 0.7132,-2.503 0.013,-0.7277 -0.2794,-1.346 -0.6923,-1.9236 -0.4199,-0.5557 -0.9561,-0.9858 -1.556,-1.3303 -0.6085,-0.3402 -1.2711,-0.53 -1.9603,-0.6082 -0.6876,-0.051 -1.3575,0.1195 -2.0238,0.2608 -0.6108,0.1348 -1.2282,0.057 -1.8361,-0.049 -0.6189,-0.084 -1.1871,-0.3097 -1.7445,-0.5791 -0.091,-0.05 -0.1827,-0.1 -0.274,-0.1494 0,0 0.4181,-0.2731 0.4181,-0.2731 l 0,0 c 0.091,0.049 0.1818,0.098 0.2727,0.1473 0.5546,0.2667 1.122,0.4843 1.7368,0.5676 0.6054,0.102 1.2179,0.1736 1.8245,0.034 0.6691,-0.1426 1.3434,-0.3057 2.0334,-0.2475 0.6932,0.086 1.3601,0.2792 1.9716,0.625 0.6036,0.3512 1.1441,0.7868 1.5672,1.3483 0.4187,0.5873 0.7161,1.216 0.7083,1.9548 -0.072,0.8826 -0.29,1.7344 -0.7061,2.5221 -0.4898,0.9192 -1.0726,1.7821 -1.7459,2.5781 -0.6909,0.8057 -1.424,1.5732 -2.2302,2.2654 -0.6448,0.5959 -1.3167,1.1641 -1.9268,1.7961 -0.5472,0.5891 -1.0811,1.2053 -1.451,1.9246 -0.3405,0.6935 -0.6657,1.4047 -0.799,2.1716 -0.09,0.7349 -0.1033,1.4738 -0.066,2.2134 0.019,0.6604 0.05,1.3217 0.027,1.9824 -0.06,0.6277 -0.1807,1.2312 -0.5229,1.7742 -0.4481,0.6941 -1.0257,1.188 -1.8059,1.5095 -0.6028,0.237 -1.2123,0.3533 -1.8526,0.1791 -0.7339,-0.2098 -1.4241,-0.5291 -2.0032,-1.037 -0.5401,-0.472 -0.9919,-1.017 -1.4687,-1.5507 -0.4634,-0.4488 -0.9497,-0.8819 -1.4822,-1.2472 -0.5083,-0.2976 -1.019,-0.4769 -1.6192,-0.4356 -0.5068,0.051 -1.0391,0.1354 -1.5214,-0.075 -0.4982,-0.3307 -0.9002,-0.7733 -1.2183,-1.2793 -0.379,-0.666 -0.6118,-1.3782 -0.6844,-2.1447 -0.1023,-0.8336 -0.1096,-1.6757 0.034,-2.5062 0.1734,-0.8131 0.4372,-1.6005 0.897,-2.3008 0.4522,-0.6679 0.9441,-1.3132 1.5662,-1.8341 0.7474,-0.5797 1.6044,-0.9953 2.487,-1.3268 0.6512,-0.2491 1.2184,-0.5065 1.5043,-0.6795 0.5644,-0.3479 1.14,-0.6867 1.6403,-1.1253 0.4413,-0.4041 0.8628,-0.8339 1.2047,-1.3271 0.2316,-0.4114 0.4491,-0.8608 0.3731,-1.3455 -0.1324,-0.4381 -0.4694,-0.6887 -0.8728,-0.8832 -0.6331,-0.2759 -1.3144,-0.4024 -2.0008,-0.4607 -0.7547,-0.067 -1.511,-0.078 -2.2684,-0.072 -0.6267,0 -1.2534,-0.01 -1.8801,-0.01 -0.4742,0 -0.9536,0.059 -1.4176,-0.071 -0.6775,-0.1833 -1.2456,-0.5368 -1.6921,-1.087 -0.474,-0.5565 -0.9206,-1.1405 -1.2924,-1.771 -0.336,-0.5523 -0.6641,-1.1254 -0.7968,-1.7651 -0.073,-0.6961 0.053,-1.3755 0.3128,-2.0252 0.3911,-0.9255 0.8978,-1.7867 1.5778,-2.5332 0.7172,-0.7963 1.5167,-1.513 2.4321,-2.0777 1.001,-0.581 2.0106,-1.1466 3.073,-1.6099 0.7673,-0.3441 1.2278,-0.5287 1.8704,-0.9563 0.6795,-0.4586 1.3414,-0.9522 1.8831,-1.5734 0.4431,-0.554 0.7356,-1.1623 0.8951,-1.8565 0.2309,-0.652 0.5381,-1.2738 0.9303,-1.845 0.4692,-0.6435 1.0132,-1.1382 1.7729,-1.4426 0.557,-0.2006 1.1441,-0.2448 1.7312,-0.1618 0.6742,0.1117 1.3181,0.3079 1.9338,0.6101 0.6452,0.2746 1.298,0.5484 1.9852,0.6987 0.7511,0.1516 1.5182,0.1979 2.2765,0.058 0.8392,-0.1804 1.653,-0.4586 2.4269,-0.832 0.5903,-0.2796 1.1793,-0.5729 1.8125,-0.7447 0.492,-0.1036 0.9659,-0.1137 1.4327,0.1058 0.6247,0.3197 1.1248,0.7889 1.5274,1.3645 0.4482,0.6622 0.8076,1.3812 0.9928,2.1637 0.1689,0.8543 0.1968,1.7228 0.04,2.5832 -0.1754,0.8551 -0.4419,1.6899 -0.8457,2.4668 -0.5355,0.8667 -1.2478,1.5006 -2.1632,1.9669 -0.823,0.424 -1.6968,0.7045 -2.6187,0.8211 -1.0642,0.1385 -2.1338,0.2131 -3.2033,0.298 -0.8796,0.082 -1.765,0.1578 -2.6269,0.3603 -0.9971,0.2922 -0.4075,0.027 -0.928,0.4006 -0.2808,0.3809 -0.059,0.6205 0.3147,0.838 0.894,0.4702 1.8939,0.5881 2.8946,0.5931 1.5763,-0.024 3.1439,-0.1729 4.7114,-0.3344 1.7813,-0.175 3.561,-0.3733 5.3473,-0.4906 1.6213,-0.087 3.2429,-0.075 4.8552,0.1458 1.2576,0.1784 2.5005,0.4608 3.6339,1.057 0.8204,0.5001 1.5626,1.1106 1.9899,1.9941 0.3568,0.8681 0.3534,1.7643 0.1637,2.6795 -0.232,1.0179 -0.6116,1.9815 -1.3479,2.7481 -0.8942,0.884 -1.9601,1.5477 -3.1047,2.0663 -0.9692,0.4243 -1.9741,0.7431 -2.9893,1.0383 -0.7489,0.257 -1.584,0.5841 -2.2501,0.8592 -0.7306,0.4209 -1.3939,0.9328 -1.8336,1.6681 -0.4033,0.6874 -0.7031,1.4243 -0.7324,2.2321 -8e-4,0.968 0.2414,1.8973 0.6054,2.7926 0.4509,1.066 0.9783,2.0924 1.5889,3.0768 0.5027,0.8358 0.9838,1.6878 1.3822,2.5791 0.2101,0.5883 0.3643,1.2116 0.1269,1.8181 -0.3834,0.7143 -0.9386,1.1775 -1.6699,1.5436 -0.8041,0.4092 -1.651,0.6914 -2.5577,0.7572 -1.0919,0.062 -2.168,0.015 -3.1867,-0.4364 -1.1553,-0.5209 -2.2476,-1.1694 -3.2245,-1.9818 -0.8864,-0.7054 -1.8227,-1.379 -2.5358,-2.2696 -0.2749,-0.399 -0.5244,-0.8074 -0.6218,-1.2884 0,0 0.4444,-0.2376 0.4444,-0.2376 z"
         inkscape:connector-curvature="0" />
    </g>
    <path
       inkscape:connector-curvature="0"
       d="m -739.06789,-42.796627 c 0.6456,0.08 1.0881,0.6876 1.4332,1.1791 0.7909,1.2563 1.4568,2.5745 1.9844,3.9599 0.4393,1.271 0.4248,2.5921 0.2814,3.9096 -0.3138,1.5887 -0.2403,3.1803 -0.032,4.7749 0.2987,1.9742 0.923,3.8644 1.814,5.6456 0.7921,1.3179 2.0064,2.2008 3.3285,2.9233 1.1775,0.6493 2.3962,0.8144 3.6993,0.5593 1.1725,-0.3137 2.0898,-1.0726 2.9211,-1.9216 0.8648,-0.868 1.2209,-1.9249 1.4503,-3.0951 0.1884,-1.1739 0.1753,-2.3646 0.1768,-3.5496 -0.033,-1.1969 0.2797,-2.3117 0.794,-3.3785 0.5485,-1.0288 1.383,-1.7988 2.3875,-2.366 0.8051,-0.4264 1.6405,-0.5412 2.5313,-0.4181 0.8533,0.1426 1.501,0.6285 2.1043,1.2152 0.835,0.864 1.7608,1.6308 2.7006,2.3765 1.0303,0.7889 2.1469,1.4485 3.3309,1.9758 0.9019,0.3696 1.8522,0.5547 2.8232,0.4629 0.8163,-0.1493 1.4102,-0.6545 1.9079,-1.2865 0.4036,-0.5248 0.4849,-1.1265 0.4829,-1.7678 -0.036,-0.8014 -0.351,-1.5437 -0.6143,-2.2898 -0.3053,-0.9064 -0.6551,-1.7969 -0.9727,-2.699 -0.3618,-1.0362 -0.6356,-2.0993 -0.8849,-3.1672 -0.2851,-1.11 -0.2118,-2.2177 -0.035,-3.3338 0.214,-1.078 0.637,-2.0837 1.0991,-3.0738 0.4888,-0.975 1.179,-1.8141 1.9681,-2.5585 0.8537,-0.7611 1.7757,-1.4448 2.7123,-2.1 0.9597,-0.6251 1.9366,-1.2242 2.9437,-1.7701 1.0804,-0.6144 2.1476,-1.2519 3.239,-1.8466 1.2219,-0.6408 2.4412,-1.2843 3.681,-1.89 1.3126,-0.6386 2.5993,-1.3276 3.7226,-2.2653 1.2869,-1.1759 2.2111,-2.6817 2.9725,-4.2348 0.5989,-1.2538 0.8983,-2.5956 0.9073,-3.9797 0.2298,-0.3792 -0.9061,-2.9119 -0.5558,-1.9061 -0.6495,-0.6597 -1.5336,-1.0025 -2.3779,-1.3402 -1.0807,-0.4331 -2.2175,-0.6877 -3.3522,-0.9314 -1.601,-0.3442 -3.2296,-0.5218 -4.8522,-0.7288 -2.1155,-0.2199 -4.1954,-0.6514 -6.2381,-1.2345 -2.0116,-0.5867 -3.9495,-1.3764 -5.8384,-2.2769 -0.3011,-0.1547 -0.6022,-0.3094 -0.9033,-0.4642 0,0 -0.2834,-0.6355 -0.2834,-0.6355 l 0,0 c 0.3006,0.1551 0.601,0.3102 0.9015,0.4653 1.8855,0.9022 3.8194,1.6943 5.8282,2.2823 2.039,0.5858 4.1151,1.0197 6.228,1.2379 1.6231,0.2062 3.2528,0.3778 4.8547,0.7206 1.1374,0.2425 2.2776,0.4935 3.3618,0.924 0.8514,0.3369 1.7403,0.6796 2.4105,1.3242 0.65,0.9904 1.2401,1.9041 1.2271,3.1346 -0.024,1.3902 -0.3287,2.7367 -0.9357,3.9938 -0.7715,1.5581 -1.7019,3.0705 -2.9965,4.2514 -1.1285,0.9404 -2.4189,1.6337 -3.7369,2.2744 -1.2385,0.6059 -2.457,1.2488 -3.6777,1.8895 -1.0912,0.5953 -2.1583,1.233 -3.2384,1.848 -1.0047,0.5445 -1.9795,1.1423 -2.9367,1.7661 -0.9338,0.6535 -1.8533,1.3349 -2.7033,2.0952 -0.7811,0.7406 -1.4647,1.5744 -1.9455,2.5443 -0.4587,0.9857 -0.8759,1.9888 -1.0827,3.0626 -0.1712,1.1117 -0.23,2.2146 0.057,3.3177 0.2512,1.0667 0.5273,2.1286 0.8916,3.1632 0.3195,0.9019 0.6679,1.7934 0.9736,2.7001 0.2652,0.7499 0.5728,1.4991 0.5959,2.3058 -0.013,0.6539 -0.1066,1.2633 -0.5224,1.7937 -0.5137,0.6423 -1.1254,1.1558 -1.9577,1.3135 -0.9813,0.1 -1.9429,-0.081 -2.8573,-0.4497 -1.1896,-0.524 -2.3109,-1.1828 -3.3476,-1.9698 -0.9414,-0.7436 -1.8702,-1.5074 -2.7062,-2.3704 -0.5912,-0.5855 -1.2188,-1.0821 -2.063,-1.2322 -0.8763,-0.1316 -1.6968,-0.025 -2.4914,0.3942 -0.9934,0.5596 -1.8147,1.323 -2.3513,2.3428 -0.5057,1.0625 -0.8044,2.1725 -0.7684,3.3606 -0.01,1.1877 0.01,2.3817 -0.188,3.5574 -0.2372,1.1798 -0.612,2.2438 -1.4845,3.1172 -0.8432,0.8566 -1.7726,1.6227 -2.9575,1.9428 -1.3161,0.263 -2.5512,0.111 -3.7448,-0.5415 -1.7911,-0.967 -3.1698,-2.2269 -4.0452,-4.1097 -0.8822,-1.7879 -1.502,-3.6819 -1.7955,-5.6593 -0.2041,-1.6 -0.2692,-3.1955 0.042,-4.7891 0.1363,-1.3129 0.1412,-2.6276 -0.3078,-3.8896 -0.3937,-1.0202 -0.8629,-2.0448 -1.2984,-2.7479 -0.3235,-0.4815 -0.7513,-1.0943 -1.3677,-1.2002 0,0 -0.3206,-0.6365 -0.3206,-0.6365 z"
       id="path5111"
       style="fill:#37c837;fill-opacity:0.13227515;stroke:#c00000;stroke-width:3;stroke-linecap:round;stroke-linejoin:round;stroke-miterlimit:4;stroke-opacity:1;stroke-dasharray:none;stroke-dashoffset:0" />
    <path
       inkscape:connector-curvature="0"
       d="m -726.00589,-132.35013 c -0.1216,0.6706 -0.2101,1.3469 -0.3133,2.0206 -0.1425,0.8819 -0.3159,1.7593 -0.5354,2.6253 -0.2165,0.745 -0.5927,1.4194 -1.0574,2.0354 -0.42,0.5395 -0.9596,0.9474 -1.5326,1.3091 -0.5978,0.3862 -1.2383,0.6728 -1.9168,0.878 -0.5921,0.157 -1.2056,0.1898 -1.8148,0.2085 -0.6081,8e-4 -1.1903,-0.1709 -1.7575,-0.3733 -0.5943,-0.2314 -1.1571,-0.5353 -1.7178,-0.8371 -0.5749,-0.3149 -1.1338,-0.6579 -1.688,-1.0074 -0.5194,-0.3278 -1.0451,-0.6453 -1.5834,-0.941 -0.5434,-0.3005 -1.1259,-0.5175 -1.7162,-0.7048 -0.5795,-0.1711 -1.1723,-0.2871 -1.7706,-0.3678 -0.558,-0.083 -1.1062,0 -1.6459,0.1429 -0.3008,0.1183 -1.0789,0.302 -1.2711,0.5536 -0.4742,0.3216 -0.827,0.7736 -1.1539,1.2365 -0.3587,0.5055 -0.5419,1.1025 -0.7149,1.6905 -0.1601,0.5384 -0.208,1.0962 -0.1916,1.6551 0.018,0.4859 0.2111,0.9216 0.4074,1.3565 0.2278,0.4581 0.4592,0.913 0.6601,1.3838 0.2363,0.4997 0.2742,1.0399 0.2509,1.5831 -0.015,0.571 -0.2352,1.0435 -0.5837,1.4821 -0.4536,0.5506 -1.0874,0.8782 -1.7004,1.2169 -0.6878,0.3387 -1.4139,0.5873 -2.1396,0.83 -0.8079,0.2629 -1.6188,0.5164 -2.4244,0.7866 -0.8411,0.2789 -1.6603,0.6158 -2.4587,0.9993 -0.7532,0.3626 -1.4042,0.8934 -2.0288,1.4412 -0.5381,0.5074 -1.1008,1.025 -1.3493,1.7372 -0.1631,0.682 0.2308,1.1745 0.6721,1.6457 0.5768,0.5886 1.2962,0.977 2.0274,1.3364 0.8297,0.3945 1.691,0.709 2.5848,0.9198 0.984,0.2095 1.984,0.3308 2.9875,0.3908 0.979,0.078 1.9512,-0.023 2.914,-0.1939 0.7546,-0.1727 1.5453,-0.356 2.1829,-0.8183 0.6607,-0.4346 1.2069,-0.9941 1.6853,-1.618 0.3974,-0.5373 0.6974,-1.1344 0.9775,-1.7384 0,0 0.2244,-0.1024 0.2244,-0.1024 l 0,0 c -0.2799,0.6056 -0.5796,1.2044 -0.9762,1.7438 -0.4776,0.6263 -1.0222,1.1889 -1.6829,1.6263 -0.8145,0.5008 -1.6475,0.9073 -2.6055,1.0536 -0.964,0.1688 -1.9373,0.2682 -2.917,0.189 -1.0045,-0.062 -2.0056,-0.1832 -2.9904,-0.3939 -0.895,-0.2127 -1.7574,-0.5284 -2.5884,-0.9241 -0.7336,-0.3612 -1.455,-0.7518 -2.0335,-1.3429 -0.4467,-0.4774 -0.8446,-0.9781 -0.6854,-1.6689 0.2419,-0.7186 0.8066,-1.2392 1.3464,-1.7498 0.7471,-0.6578 1.5402,-1.2584 2.446,-1.6853 0.7993,-0.3824 1.6191,-0.7187 2.4608,-0.9972 0.8058,-0.2698 1.6168,-0.5235 2.4246,-0.7868 0.7256,-0.2433 1.4516,-0.4928 2.1383,-0.8342 0.491,-0.214 0.9236,-0.5727 1.2811,-0.9653 0.3499,-0.4336 0.574,-0.8993 0.5901,-1.468 0.025,-0.5396 -0.011,-1.0766 -0.2458,-1.5732 -0.2008,-0.4706 -0.4323,-0.9253 -0.6601,-1.3831 -0.1978,-0.4378 -0.3931,-0.8762 -0.412,-1.3652 -0.017,-0.5612 0.03,-1.1217 0.1892,-1.6627 0.1726,-0.5896 0.3541,-1.1894 0.7111,-1.6977 0.3259,-0.4648 0.6778,-0.9192 1.15,-1.2453 0.5387,-0.3274 1.0778,-0.645 1.6981,-0.7936 0.5419,-0.138 1.0922,-0.2198 1.6514,-0.135 0.5989,0.082 1.1926,0.1989 1.7726,0.3716 0.5913,0.1885 1.1748,0.407 1.7191,0.7085 0.5384,0.2965 1.0643,0.6143 1.5838,0.9426 0.5539,0.3491 1.1124,0.6918 1.687,1.006 0.5601,0.301 1.1221,0.6041 1.716,0.8339 0.5658,0.2002 1.1464,0.3696 1.7525,0.3654 0.6081,-0.019 1.2204,-0.053 1.8106,-0.2134 0.5187,-0.1589 1.0287,-0.3526 1.4919,-0.638 0.5736,-0.3594 1.1148,-0.7639 1.5364,-1.3012 0.4668,-0.6123 0.8436,-1.2845 1.0626,-2.0268 0.2208,-0.8652 0.3944,-1.7422 0.537,-2.6236 0.1027,-0.6723 0.1901,-1.3472 0.3075,-2.0171 0,0 0.2249,-0.1109 0.2249,-0.1109 z"
       id="path5943"
       style="fill:#e4e4e4;fill-opacity:1;stroke:#c00000;stroke-width:3;stroke-linecap:round;stroke-linejoin:round;stroke-miterlimit:4;stroke-opacity:1;stroke-dasharray:none;stroke-dashoffset:0" />
    <path
       inkscape:connector-curvature="0"
       d="m -715.13439,-116.50483 c 0,0.5004 0.024,1.0003 0.055,1.4995 0.065,0.9752 0.1476,1.9497 0.1486,2.9276 -0.01,0.9593 -0.2127,1.8829 -0.5331,2.7815 -0.2399,0.6607 -0.5281,1.3014 -0.862,1.9196 -0.242,0.4758 -0.6632,0.7898 -1.0977,1.0769 -0.5325,0.3092 -1.0594,0.6252 -1.5693,0.9705 -0.5539,0.3736 -1.0236,0.8418 -1.4313,1.3677 -0.3953,0.504 -0.6683,1.0705 -0.821,1.6902 -0.1396,0.6017 -0.01,1.1779 0.1963,1.7439 0.2968,0.625103 0.6057,1.241503 0.8368,1.894703 0.1863,0.6059 0.1323,1.2208 -0.01,1.8275 -0.1346,0.5969 -0.4247,1.1046 -0.8205,1.5631 -0.6665,0.6782 -1.5701,1.0427 -2.4398,1.3853 -1.0696,0.3834 -2.1682,0.6798 -3.2706,0.9518 -0.9276,0.2399 -1.8705,0.3633 -2.8249,0.269 -0.7744,-0.1336 -1.3588,-0.5181 -1.7971,-1.1574 -0.3709,-0.579 -0.4437,-1.2211 -0.4099,-1.8912 0.067,-0.7727 0.2882,-1.5197 0.5584,-2.2431 0.3208,-0.8138 0.8299,-1.516 1.381,-2.186003 0.6886,-0.7903 1.4459,-1.5164 2.1733,-2.2701 0.6861,-0.7527 1.2979,-1.5699 1.887,-2.3996 0.5171,-0.7116 0.9039,-1.4941 1.1869,-2.324 0.2182,-0.6589 0.2562,-1.3382 0.202,-2.0239 -0.061,-0.564 -0.2368,-1.0883 -0.6025,-1.5239 -0.5266,-0.5299 -1.2297,-0.8111 -1.9306,-1.0282 -0.8066,-0.2516 -1.6446,-0.3277 -2.4845,-0.3449 -0.7604,0.069 -1.4895,0.3545 -2.1331,0.7602 -0.7056,0.4819 -1.29,1.1113 -1.7933,1.7965 -0.5079,0.6886 -0.8129,1.4681 -1.0174,2.2911 -0.1794,0.8714 -0.1993,1.7641 -0.2312,2.6501 -0.034,1.0071 -0.026,2.0151 -0.024,3.0226 0.013,1.0028 0.041,2.005303 0.066,3.007903 0.025,0.8961 -0.023,1.7918 -0.1214,2.6822 -0.096,0.7698 -0.3309,1.5085 -0.6221,2.224 -0.2817,0.6708 -0.732,1.2353 -1.2337,1.7529 -0.499,0.4973 -1.0803,0.8982 -1.6781,1.266 -0.6603,0.4158 -1.3765,0.7253 -2.0902,1.0349 -0.6169,0.2708 -1.2289,0.5522 -1.8288,0.8588 -0.4639,0.2321 -0.8873,0.5293 -1.2976,0.8446 -0.4355,0.35 -0.7993,0.7757 -1.1475,1.2098 -0.2235,0.2813 -0.4203,0.5818 -0.6114,0.8855 0,0 -0.2266,0.1 -0.2266,0.1 l 0,0 c 0.1909,-0.3046 0.3873,-0.606 0.6106,-0.8882 0.3476,-0.4355 0.7111,-0.8626 1.1453,-1.2153 0.5385,-0.4164 1.1154,-0.7761 1.7196,-1.0904 0.6002,-0.3057 1.2122,-0.5867 1.8291,-0.8571 0.5645,-0.2454 1.1334,-0.4863 1.6678,-0.7936 0.5984,-0.3661 1.1804,-0.7652 1.6808,-1.2604 0.5026,-0.5144 0.9542,-1.0762 1.2376,-1.7443 0.2923,-0.7136 0.5284,-1.4503 0.626,-2.2184 0.099,-0.8895 0.1484,-1.7845 0.1239,-2.6798 -0.024,-1.0028 -0.052,-2.005603 -0.065,-3.008603 0,-1.0077 -0.01,-2.0158 0.023,-3.023 0.032,-0.8874 0.051,-1.7813 0.2285,-2.6544 0.203,-0.8255 0.5052,-1.6082 1.0131,-2.2995 0.5015,-0.6882 1.0863,-1.3189 1.7898,-1.8057 0.7966,-0.4698 1.6144,-0.9332 2.5597,-0.9918 0.8414,0.019 1.6805,0.098 2.4883,0.3506 0.7048,0.2199 1.4113,0.5046 1.9401,1.0388 0.3685,0.4401 0.5479,0.9679 0.6098,1.5373 0.055,0.6889 0.019,1.3713 -0.1991,2.0337 -0.2823,0.8322 -0.6676,1.6176 -1.1856,2.3312 -0.5888,0.8307 -1.2013,1.6483 -1.8861,2.4031 -0.7267,0.754 -1.4842,1.4793 -2.1737,2.2683 -0.5507,0.667703 -1.06,1.366903 -1.3824,2.177703 -0.2711,0.7209 -0.4924,1.4655 -0.5609,2.236 -0.035,0.6649 0.034,1.302 0.4025,1.8769 0.4345,0.6337 1.0159,1.0117 1.784,1.1403 0.9523,0.091 1.8928,-0.035 2.818,-0.2741 1.1021,-0.2725 2.2006,-0.5688 3.2691,-0.9548 0.7257,-0.2874 1.4745,-0.5556 2.0218,-1.1393 0.3973,-0.4542 0.6893,-0.9575 0.8249,-1.552 0.1428,-0.6021 0.1993,-1.2129 0.016,-1.8154 -0.2304,-0.6534 -0.5394,-1.2696 -0.837,-1.894303 -0.2091,-0.5696 -0.3414,-1.1501 -0.2032,-1.7567 0.1499,-0.6228 0.4217,-1.1928 0.8172,-1.6998 0.406,-0.5285 0.8745,-0.9993 1.4283,-1.3749 0.5091,-0.3459 1.0345,-0.6637 1.5681,-0.9704 0.434,-0.284 0.8588,-0.593 1.1025,-1.0657 0.3359,-0.6171 0.626,-1.2569 0.8663,-1.9175 0.3223,-0.896 0.5291,-1.8169 0.538,-2.7745 0,-0.9772 -0.082,-1.9509 -0.1495,-2.9254 -0.033,-0.4986 -0.063,-0.9978 -0.062,-1.4977 0,0 0.2245,-0.1144 0.2245,-0.1144 z"
       id="path5945"
       style="fill:#e4e4e4;fill-opacity:1;stroke:#c00000;stroke-width:3;stroke-linecap:round;stroke-linejoin:round;stroke-miterlimit:4;stroke-opacity:1;stroke-dasharray:none;stroke-dashoffset:0" />
    <g
       transform="translate(-2421.2427,-2091.846)"
       id="g3238">
      <path
         transform="matrix(-0.37981491,0.9250625,-0.9250625,-0.37981491,1921.3417,1812.1952)"
         sodipodi:type="star"
         style="fill:#e4e4e4;fill-opacity:1;stroke:#000000;stroke-width:3;stroke-linecap:round;stroke-linejoin:round;stroke-miterlimit:4;stroke-opacity:0.87301588;stroke-dasharray:none;marker-start:none;marker-mid:none;marker-end:none"
         id="path3832-9"
         sodipodi:sides="6"
         sodipodi:cx="182.83762"
         sodipodi:cy="67.292274"
         sodipodi:r1="33.941727"
         sodipodi:r2="29.394398"
         sodipodi:arg1="0.6375488"
         sodipodi:arg2="1.1611476"
         inkscape:flatsided="true"
         inkscape:rounded="0"
         inkscape:randomized="0"
         d="M 210.11173,87.495325 178.97832,101.01388 151.7042,80.810829 155.5635,47.089224 186.69691,33.570669 213.97103,53.77372 z"
         inkscape:transform-center-x="14.252248"
         inkscape:transform-center-y="26.910034" />
      <path
         style="fill:#37c837;fill-opacity:0.13227515;stroke:#c00000;stroke-width:3;stroke-linecap:round;stroke-linejoin:round;stroke-miterlimit:4;stroke-opacity:1;stroke-dasharray:none;stroke-dashoffset:0"
         id="path5105"
         d="m 1783.094,1939.5594 c 0.4616,1.3803 0.5875,2.8873 0.5974,4.3348 0.042,1.5545 -0.3024,2.9997 -1.0176,4.3688 -0.7019,1.2589 -1.8354,2.1016 -3.0744,2.7803 -1.3474,0.6452 -2.8333,0.8119 -4.3089,0.7566 -1.3719,-0.1111 -2.6864,-0.5057 -3.9187,-1.1061 -0.8681,-0.4758 -1.583,-1.1989 -1.9828,-2.1077 -0.1026,-0.5791 -0.4289,-1.7727 0.2652,-2.2261 0.5996,-0.1436 0.5958,0.8039 0.655,1.183 0.2795,1.7987 0.4253,3.6049 0.4067,5.4239 0.061,1.9076 -0.082,3.8659 0.237,5.7558 0.533,3.3412 1.7217,6.5241 3.1996,9.5519 1.4796,2.8692 3.2802,5.5642 5.5002,7.909 1.8799,1.8759 4.0051,3.4238 6.4382,4.4823 1.9814,0.873 3.9394,0.8 5.9354,0.085 1.6703,-0.8582 2.7391,-2.3187 3.553,-3.9623 0.6585,-1.4774 1.0296,-3.0357 1.1717,-4.6411 0.16,-1.691 -0.024,-2.1147 -0.4665,-3.5558 -0.5583,-1.6474 -1.3253,-3.2103 -1.9739,-4.8219 -0.747,-1.889 -1.2518,-3.8571 -1.6678,-5.8414 -0.4187,-2.3201 -0.7459,-4.6601 -0.481,-7.0115 0.316,-1.366 0.9309,-2.5334 2.1304,-3.2817 1.0491,-0.5293 2.2083,-0.5099 3.35,-0.4238 1.2223,0.1882 2.4177,0.4043 3.6586,0.3684 1.2422,-0.1551 2.2201,-0.7746 3.1093,-1.6126 0.8592,-0.8165 1.4476,-1.8171 1.8152,-2.9344 0.3017,-0.2531 0.082,-3.5898 0.1159,-2.2078 -0.2913,-1.052 -0.7476,-2.0499 -1.5206,-2.8297 -0.7945,-0.574 -1.7431,-0.7989 -2.6868,-0.9862 -1.137,-0.2115 -2.2876,-0.3368 -3.4286,-0.5265 -1.4096,-0.2244 -2.788,-0.5838 -4.1479,-1.0111 -1.3178,-0.3933 -2.6798,-0.6904 -4.0553,-0.7631 -1.0735,0.016 -2.0811,0.3481 -3.0503,0.7807 0,0 -0.1614,-0.985 -0.1614,-0.985 l 0,0 c 0.9847,-0.4359 2.0078,-0.7702 3.0967,-0.7877 1.3839,0.07 2.7543,0.3696 4.0806,0.7629 1.3551,0.4272 2.7285,0.7866 4.1337,1.0098 1.142,0.19 2.2933,0.3152 3.4315,0.5245 0.962,0.1888 1.9226,0.4174 2.7449,0.9809 0.8001,0.7701 1.2685,1.7721 1.5781,2.8308 0.236,1.3994 0.5244,2.7823 0.1123,4.1782 -0.3889,1.1208 -0.9935,2.1245 -1.8636,2.9439 -0.9114,0.8465 -1.9179,1.4664 -3.1805,1.6236 -1.2447,0.037 -2.4439,-0.1723 -3.6692,-0.3665 -1.1199,-0.087 -2.2594,-0.1104 -3.2865,0.4153 -1.1671,0.7475 -1.7545,1.9138 -2.0446,3.2554 -0.1756,1.6923 -0.093,3.3906 0.2351,5.0619 0.41,1.9834 0.9092,3.9507 1.6501,5.8398 0.6455,1.6133 1.4133,3.1755 1.9819,4.8194 0.5579,1.7792 0.9169,3.6422 0.7245,5.5122 -0.1564,1.6083 -0.5372,3.1711 -1.2081,4.648 -0.839,1.6546 -1.9304,3.1213 -3.6278,3.9749 -2.019,0.7175 -4.0046,0.7983 -6.0098,-0.079 -2.4472,-1.0577 -4.5854,-2.6051 -6.4781,-4.4866 -2.235,-2.3405 -4.0402,-5.0411 -5.5301,-7.9124 -1.4885,-3.0237 -2.6836,-6.206 -3.2305,-9.5454 -0.353,-2.5543 -0.562,-5.115 -0.4869,-7.6975 0.01,-1.2951 -0.1603,-2.552 -0.2202,-3.8387 -0.01,-0.1258 0.042,0.2484 0.063,0.3726 -0.036,-0.2626 -0.023,-1.2579 -0.449,-1.1933 -0.4183,0.3533 -0.2852,1.7144 -0.452,0.2316 0.3524,0.9135 1.0668,1.635 1.9108,2.1155 1.217,0.6035 2.5182,0.9983 3.8773,1.1123 1.4575,0.057 2.9265,-0.1065 4.2554,-0.7492 1.2226,-0.6773 2.335,-1.5156 3.0165,-2.769 0.6964,-1.3678 1.0174,-2.8119 0.9711,-4.3548 -0.012,-0.7689 0.07,-1.2472 -0.306,-2.3698 0,0 -0.017,-1.0078 -0.017,-1.0078 z"
         inkscape:connector-curvature="0"
         inkscape:transform-center-x="15.950737"
         inkscape:transform-center-y="29.140396" />
      <path
         style="fill:#e4e4e4;fill-opacity:1;stroke:#c00000;stroke-width:3;stroke-linecap:round;stroke-linejoin:round;stroke-miterlimit:4;stroke-opacity:1;stroke-dasharray:none;stroke-dashoffset:0"
         id="path5967"
         d="m 1764.099,1922.5142 c 0.3076,0.1155 0.5904,0.2857 0.8784,0.4417 0.6451,0.3471 1.303,0.6696 1.9606,0.9922 0.7124,0.3638 1.441,0.6889 2.1874,0.9759 0.7012,0.2717 1.4347,0.4342 2.1867,0.4357 0.6941,-0.029 1.3619,-0.2166 2.0109,-0.4513 0.7003,-0.2815 1.2839,-0.7614 1.8388,-1.2609 0.7249,-0.68 1.3117,-1.488 1.8954,-2.2877 0.6325,-0.8775 1.2261,-1.7816 1.7996,-2.6985 0.5718,-0.9369 1.1949,-1.8389 1.9215,-2.6623 0.6494,-0.7528 1.4385,-1.3273 2.301,-1.8082 0.6947,-0.3723 1.42,-0.5028 2.1968,-0.4459 0.6059,0.078 1.1118,0.3808 1.5868,0.7445 0.5129,0.4076 0.982,0.8682 1.4557,1.3202 0.5702,0.5248 1.1465,1.0419 1.6836,1.6009 0.5666,0.6276 1.1836,1.2047 1.8156,1.7653 0.6468,0.5919 1.3558,1.0922 2.1249,1.5095 0.863,0.4807 1.78,0.7623 2.7502,0.9137 1.1296,0.1337 2.2709,0.1081 3.4056,0.073 1.1488,-0.06 2.2931,0.031 3.4299,0.1904 1.0984,0.1705 2.1079,0.6073 3.0731,1.1404 0.8643,0.4608 1.5541,1.1081 2.1219,1.8966 0.4737,0.6921 0.806,1.4616 1.114,2.2374 0.2625,0.7752 0.5489,1.5386 0.8901,2.2828 0.3629,0.7588 0.8275,1.4578 1.3887,2.0825 0.5225,0.633 1.2687,0.8193 2.0314,0.9967 1.188,0.2497 2.3761,0.4947 3.5718,0.7044 1.6157,0.2678 3.2436,0.4536 4.8534,0.7555 1.4136,0.2768 2.5315,0.5718 3.6608,1.4923 0.8627,0.8106 1.1808,1.9344 1.419,3.055 0.2169,1.0292 0.2567,2.0721 0.2121,3.1181 -0.022,0.7877 -0.2434,1.5296 -0.5904,2.2307 -0.2972,0.6027 -0.7256,1.0736 -1.2433,1.4906 -0.499,0.3902 -1.0645,0.6654 -1.6568,0.8799 0,0 -0.054,-0.3471 -0.054,-0.3471 l 0,0 c 0.5886,-0.2139 1.1501,-0.4885 1.6452,-0.8776 0.513,-0.416 0.9355,-0.8877 1.2285,-1.487 0.3418,-0.7006 0.557,-1.4408 0.5768,-2.2256 0.033,-0.8132 0.039,-1.6336 -0.1232,-2.4352 -0.2334,-1.1172 -0.5425,-2.2421 -1.3957,-3.0563 -1.1396,-0.9406 -2.2138,-1.2088 -3.6441,-1.4962 -1.6093,-0.3039 -3.2372,-0.4895 -4.8529,-0.756 -1.1961,-0.2074 -2.3848,-0.4491 -3.5731,-0.6971 -0.7676,-0.1769 -1.5241,-0.3604 -2.0526,-0.9951 -0.5654,-0.6239 -1.033,-1.3228 -1.3994,-2.0824 -0.3428,-0.7436 -0.6322,-1.5061 -0.8919,-2.2825 -0.3064,-0.7753 -0.6353,-1.5452 -1.1054,-2.2386 -0.5617,-0.7892 -1.2453,-1.4379 -2.1065,-1.8985 -0.9608,-0.5337 -1.9661,-0.9712 -3.0606,-1.1424 -1.1348,-0.1597 -2.2772,-0.2509 -3.424,-0.1909 -1.1368,0.035 -2.2801,0.061 -3.4119,-0.072 -0.9742,-0.1499 -1.8952,-0.4291 -2.762,-0.911 -0.772,-0.4164 -1.4842,-0.9154 -2.1328,-1.5087 -0.6328,-0.5603 -1.2518,-1.1364 -1.8184,-1.7647 -0.5358,-0.5595 -1.1112,-1.0767 -1.6821,-1.6002 -0.4729,-0.451 -0.941,-0.9106 -1.4518,-1.3189 -0.4685,-0.3626 -0.9669,-0.6666 -1.5666,-0.747 -0.7702,-0.058 -1.4886,0.071 -2.177,0.4409 -0.8591,0.4793 -1.6433,1.0542 -2.2896,1.8047 -0.7241,0.8235 -1.3453,1.725 -1.9162,2.6606 -0.5741,0.9172 -1.1685,1.8215 -1.8018,2.6993 -0.5857,0.8012 -1.1743,1.611 -1.9021,2.2915 -0.5589,0.5016 -1.1468,0.9829 -1.8519,1.2645 -0.653,0.2354 -1.3249,0.4233 -2.0229,0.4525 -0.7562,-5e-4 -1.4941,-0.1628 -2.1995,-0.4351 -0.7476,-0.2864 -1.479,-0.6072 -2.1907,-0.9751 -0.6579,-0.322 -1.3155,-0.645 -1.9619,-0.9897 -0.2868,-0.1545 -0.5693,-0.3212 -0.8743,-0.4378 0,0 -0.029,-0.355 -0.029,-0.355 z"
         inkscape:connector-curvature="0"
         inkscape:transform-center-x="7.9100567"
         inkscape:transform-center-y="1.1159349" />
    </g>
    <path
       inkscape:connector-curvature="0"
       d="m -690.47009,-126.12153 c 0.072,-0.6465 0.6744,-1.0963 1.1618,-1.4473 1.2467,-0.8059 2.5566,-1.4877 3.9357,-2.032 1.2656,-0.4545 2.5867,-0.4556 3.9059,-0.3284 1.5923,0.2945 3.1829,0.2019 4.7748,-0.025 1.971,-0.3202 3.853,-0.9695 5.6234,-1.8822 1.3083,-0.8079 2.1764,-2.0327 2.8829,-3.3634 0.635,-1.1852 0.7854,-2.4057 0.5147,-3.7057 -0.3277,-1.1686 -1.0977,-2.0768 -1.9567,-2.8978 -0.8784,-0.8542 -1.9395,-1.1975 -3.1123,-1.4128 -1.1761,-0.1743 -2.3666,-0.1469 -3.5515,-0.1341 -1.1963,0.048 -2.315,-0.2516 -3.3877,-0.753 -1.0355,-0.5362 -1.8156,-1.3615 -2.3948,-2.359 -0.4359,-0.7999 -0.561,-1.6339 -0.4488,-2.526 0.132,-0.855 0.6103,-1.5085 1.1898,-2.1188 0.8539,-0.8453 1.6094,-1.7802 2.3438,-2.7291 0.7763,-1.0397 1.4225,-2.1642 1.9353,-3.3544 0.3588,-0.9063 0.532,-1.8589 0.4288,-2.8287 -0.1586,-0.8144 -0.6713,-1.4021 -1.3092,-1.8922 -0.5297,-0.3973 -1.1323,-0.4712 -1.7736,-0.4618 -0.8008,0.046 -1.5394,0.3695 -2.2821,0.6417 -0.9027,0.3162 -1.7889,0.6768 -2.687,1.0052 -1.0319,0.3743 -2.0915,0.6609 -3.1564,0.9231 -1.1064,0.2985 -2.215,0.2385 -3.3332,0.075 -1.0803,-0.2013 -2.0912,-0.6116 -3.0868,-1.0619 -0.9807,-0.4771 -1.828,-1.157 -2.5819,-1.9371 -0.7713,-0.8446 -1.4661,-1.7581 -2.1326,-2.6869 -0.6366,-0.9519 -1.2477,-1.9217 -1.8054,-2.922 -0.6275,-1.073 -1.2778,-2.1323 -1.8855,-3.2165 -0.6556,-1.2141 -1.3136,-2.4256 -1.9343,-3.6579 -0.6544,-1.305 -1.3589,-2.5833 -2.3102,-3.6951 -1.1913,-1.2726 -2.708,-2.1787 -4.2701,-2.9213 -1.2609,-0.5837 -2.6062,-0.8669 -3.9904,-0.8592 -0.382,-0.2252 -2.9008,0.9412 -1.8992,0.5787 -0.6519,0.6574 -0.984,1.5456 -1.3116,2.394 -0.42,1.0858 -0.6611,2.2255 -0.8906,3.3631 -0.3249,1.605 -0.4828,3.2358 -0.6702,4.8607 -0.1945,2.118 -0.6009,4.2029 -1.1593,6.2525 -0.5664,2.0175 -1.3287,3.9657 -2.2064,5.8654 -0.1509,0.303 -0.3021,0.606 -0.4532,0.9089 0,0 -0.632,0.291 -0.632,0.291 l 0,0 c 0.1518,-0.3023 0.303,-0.6047 0.4545,-0.9071 0.8791,-1.8962 1.6479,-3.8395 2.2117,-5.8552 0.5637,-2.0452 0.9701,-4.1272 1.1628,-6.2425 0.1865,-1.6255 0.3386,-3.2571 0.662,-4.8631 0.2292,-1.1401 0.466,-2.2833 0.8829,-3.3728 0.3271,-0.8553 0.6585,-1.7484 1.2951,-2.4262 0.9825,-0.6619 1.8891,-1.263 3.1196,-1.2648 1.3904,0.01 2.7403,0.2957 4.0049,0.8875 1.5672,0.7526 3.0907,1.6648 4.287,2.945 0.954,1.117 1.6627,2.399 2.3194,3.7092 0.6208,1.2312 1.2782,2.4418 1.9337,3.6546 0.6083,1.084 1.2588,2.1433 1.887,3.2159 0.5565,0.9982 1.166,1.9657 1.8013,2.9153 0.6647,0.9258 1.357,1.837 2.1276,2.6778 0.7499,0.7721 1.592,1.4456 2.5676,1.9146 0.9912,0.4469 1.9992,0.852 3.0754,1.0457 1.1138,0.1578 2.2173,0.2033 3.3168,-0.097 1.0637,-0.2639 2.122,-0.5529 3.1522,-0.9297 0.8979,-0.3304 1.7852,-0.6895 2.6882,-1.0061 0.7466,-0.2741 1.492,-0.5907 2.2985,-0.6236 0.6539,0.01 1.2645,0.091 1.801,0.4965 0.6484,0.5057 1.1694,1.1112 1.3371,1.9416 0.1116,0.9801 -0.058,1.9436 -0.4153,2.8624 -0.5096,1.196 -1.1549,2.3251 -1.9293,3.3711 -0.7322,0.9504 -1.4848,1.8884 -2.3376,2.7346 -0.5784,0.5983 -1.0675,1.2318 -1.2073,2.0778 -0.1211,0.8778 0,1.697 0.4241,2.4865 0.5713,0.9866 1.3448,1.7986 2.371,2.3229 1.0684,0.4927 2.1819,0.7781 3.3695,0.7278 1.1878,-0.01 2.3814,-0.037 3.5595,0.145 1.1824,0.2233 2.2509,0.5852 3.1348,1.4469 0.8668,0.8329 1.6439,1.7529 1.9784,2.9339 0.2791,1.3128 0.1417,2.5496 -0.4964,3.751 -0.9454,1.8026 -2.1885,3.1965 -4.0606,4.0944 -1.7771,0.9037 -3.6637,1.5463 -5.6373,1.8636 -1.5975,0.2231 -3.1921,0.3078 -4.7893,0.016 -1.3143,-0.1206 -2.6291,-0.1096 -3.8854,0.3546 -1.0156,0.4059 -2.0343,0.8875 -2.7322,1.3314 -0.4776,0.3292 -1.0852,0.7645 -1.1837,1.3822 0,0 -0.6325,0.3281 -0.6325,0.3281 z"
       id="path5111-1"
       style="fill:#37c837;fill-opacity:0.13227515;stroke:#c00000;stroke-width:3;stroke-linecap:round;stroke-linejoin:round;stroke-miterlimit:4;stroke-opacity:1;stroke-dasharray:none;stroke-dashoffset:0" />
    <path
       d="M 210.11173,87.495325 178.97832,101.01388 151.7042,80.810829 155.5635,47.089224 186.69691,33.570669 213.97103,53.77372 z"
       inkscape:randomized="0"
       inkscape:rounded="0"
       inkscape:flatsided="true"
       sodipodi:arg2="1.1611476"
       sodipodi:arg1="0.6375488"
       sodipodi:r2="29.394398"
       sodipodi:r1="33.941727"
       sodipodi:cy="67.292274"
       sodipodi:cx="182.83762"
       sodipodi:sides="6"
       id="path3832-18-7"
       style="fill:#e4e4e4;fill-opacity:1;stroke:#000000;stroke-width:3;stroke-linecap:round;stroke-linejoin:round;stroke-miterlimit:4;stroke-opacity:0.87301588;stroke-dasharray:3, 18;stroke-dashoffset:0;marker-start:none;marker-mid:none;marker-end:none"
       sodipodi:type="star"
       transform="matrix(0,-1,1,0,-658.38939,118.86937)" />
    <path
       inkscape:connector-curvature="0"
       d="m -594.67429,-102.47453 c 0.017,0.3879 -0.02,0.769 -0.076,1.1525 -0.1265,0.7889 -0.284,1.572803 -0.443,2.355703 -0.1691,0.8668 -0.3498,1.7312 -0.5132,2.5992 -0.1856,0.8377 -0.3188,1.6833 -0.3919,2.538 -0.1007,0.8318 0.025,1.648 0.2376,2.4503 0.2248,0.771 0.575,1.4958 0.9399,2.2084 0.3375,0.6858 0.8205,1.2743 1.3173,1.8486 0.5497,0.6117 1.1654,1.1541 1.8135,1.6579 0.6852,0.5329 1.4429,0.9564 2.2127,1.3519 0.7363,0.3884 1.5106,0.6843 2.3192,0.8782 0.7523,0.1571 1.5217,0.1695 2.2868,0.1787 0.7661,0.023 1.5125,-0.1097 2.2485,-0.3071 0.6087,-0.1654 1.1734,-0.4389 1.701,-0.7788 0.6194,-0.4116 1.1474,-0.9229 1.6458,-1.4701 0.5368,-0.5957 0.9707,-1.2714 1.36,-1.9696 0.4136,-0.8113 0.7926,-1.6396 1.1787,-2.4642 0.4153,-0.8128 0.8078,-1.6369 1.2118,-2.4553 0.3784,-0.7621 0.7933,-1.4998 1.301,-2.1829 0.4792,-0.6386 1.0613,-1.1804 1.6786,-1.6816 0.6002,-0.4635 1.2307,-0.8866 1.8846,-1.2701 0.7794,-0.487 1.6263,-0.8317 2.4909,-1.1316 0.8475,-0.2767 1.72,-0.4517 2.6026,-0.5663 0.9528,-0.094 1.9065,-0.072 2.8574,0.023 0.9428,0.099 1.8528,0.3469 2.7094,0.7489 0.7582,0.3862 1.4442,0.8913 2.0793,1.4539 0.5316,0.4856 0.9193,1.0818 1.2088,1.7356 0.252,0.5952 0.3306,1.2173 0.3058,1.8572 -0.04,0.5809 -0.2174,1.1365 -0.4194,1.6783 -0.2333,0.607 -0.5939,1.1523 -0.9549,1.6892 -0.3721,0.5191 -0.7543,1.0313 -1.1665,1.5193 -0.4115,0.5051 -0.8136,1.018 -1.2168,1.5297 -0.4109,0.535 -0.7915,1.0924 -1.1757,1.6466 -0.4252,0.6101 -0.8443,1.2241 -1.2367,1.8559 -0.4206,0.6996 -0.8302,1.4059 -1.2518,2.1049 -0.3897,0.6518 -0.7652,1.312 -1.1693,1.955 -0.4221,0.6504 -0.829,1.309 -1.1992,1.9904 -0.3658,0.7592 -0.7921,1.4854 -1.2231,2.2087 -0.3845,0.64 -0.7684,1.2803 -1.1587,1.9169 -0.4313,0.675 -0.8335,1.3632 -1.1825,2.0842 -0.377,0.7453 -0.7163,1.5077 -1.0201,2.2855 -0.299,0.7908 -0.5379,1.6019 -0.7557,2.4182 -0.2194,0.8461 -0.3913,1.7033 -0.5465,2.5633 -0.1484,0.8631 -0.3187,1.722 -0.462,2.586 -0.1477,0.9367 -0.2586,1.8787 -0.3651,2.8208 -0.1062,0.9804 -0.188,1.9632 -0.2645,2.9462 -0.056,1.0053 -0.092,2.0121 -0.1,3.0189 -0.01,0.9296 0.01,1.8588 0.072,2.7864 0.054,0.8027 0.168,1.5998 0.3149,2.3903 0.1306,0.7428 0.3643,1.4613 0.5911,2.1789 0.2543,0.7513 0.5267,1.4962 0.7771,2.2488 0.2603,0.7452 0.4977,1.4979 0.7406,2.2488 0.2342,0.7273 0.4319,1.4655 0.6479,2.1983 0.2187,0.7176 0.4173,1.4409 0.6218,2.1627 0.2131,0.7355 0.3985,1.4787 0.5882,2.2205 0.2022,0.7323 0.4085,1.4635 0.6347,2.1889 0.2416,0.7414 0.5384,1.4629 0.8292,2.1859 0.2966,0.7102 0.6166,1.4103 0.934,2.1114 0.3108,0.6763 0.5784,1.3711 0.8488,2.0642 0.2736,0.6758 0.4776,1.3755 0.6358,2.0863 0.1551,0.6929 0.2401,1.3949 0.2787,2.1028 0.045,0.7051 6e-4,1.4104 -0.045,2.114 -0.057,0.7219 -0.176,1.4369 -0.3259,2.1448 -0.1429,0.6701 -0.4042,1.304 -0.6744,1.9306 -0.2328,0.6547 -0.5872,1.2382 -1.0095,1.7853 -0.422,0.5354 -0.9498,0.9651 -1.5208,1.331 -0.6894,0.4592 -1.4498,0.7469 -2.2398,0.9732 -0.7854,0.1853 -1.5929,0.175 -2.3939,0.1572 -0.8532,0 -1.6981,-0.1186 -2.535,-0.2753 -0.8537,-0.1653 -1.6846,-0.4198 -2.5166,-0.6682 -0.786,-0.2057 -1.5556,-0.4559 -2.31,-0.757 -0.731,-0.2862 -1.3773,-0.7166 -1.972,-1.2223 -0.5715,-0.5054 -1.0563,-1.0944 -1.5083,-1.7061 -0.4508,-0.5866 -0.7539,-1.2535 -0.9946,-1.9479 -0.2414,-0.6982 -0.3323,-1.4275 -0.3683,-2.1612 -0.026,-0.7886 0.047,-1.5739 0.1485,-2.3548 0.1178,-0.8548 0.3081,-1.6984 0.5032,-2.5384 0.2458,-0.944 0.5024,-1.8846 0.7298,-2.8333 0.2345,-0.9659 0.4223,-1.9412 0.5654,-2.9245 0.1404,-1.0248 0.2128,-2.0584 0.2611,-3.0913 0.045,-0.9862 0.043,-1.9737 0.01,-2.9602 -0.027,-0.8849 -0.1064,-1.7663 -0.2639,-2.6373 -0.1395,-0.7303 -0.3857,-1.4252 -0.7204,-2.0868 -0.3125,-0.6538 -0.7585,-1.2239 -1.2369,-1.7626 -0.5075,-0.5676 -1.0919,-1.0503 -1.7101,-1.4908 -0.6328,-0.4624 -1.3391,-0.7914 -2.0785,-1.0406 -0.7793,-0.2576 -1.5932,-0.3449 -2.4092,-0.3645 -0.7973,-0.012 -1.5929,0.055 -2.3833,0.1535 -0.7592,0.1049 -1.494,0.3291 -2.2131,0.5878 -0.622,0.2226 -1.1592,0.5666 -1.6783,0.9652 -0.5625,0.4617 -1.07,0.987 -1.5593,1.5245 -0.4828,0.5401 -0.8534,1.1609 -1.1899,1.7986 -0.3568,0.7641 -0.7493,1.5098 -1.145,2.2541 -0.4112,0.7862 -0.9064,1.5233 -1.4564,2.2181 -0.5644,0.7037 -1.2819,1.2387 -2.027,1.7336 -0.8916,0.59 -1.8559,1.0378 -2.849,1.4237 -1.232,0.4575 -2.5355,0.672 -3.8244,0.9012 -1.4955,0.2978 -2.9946,0.4801 -4.5189,0.4709 -1.8654,-0.1077 -3.7227,-0.354 -5.5699,-0.6313 -1.5322,-0.2254 -3.0314,-0.6089 -4.519,-1.0309 -1.138,-0.3424 -2.2519,-0.7686 -3.2948,-1.3403 -0.7415,-0.3873 -1.3241,-0.9349 -1.7819,-1.6269 -0.3136,-0.5687 -0.3419,-1.1856 -0.234,-1.8112 0.1111,-0.6405 0.4368,-1.2009 0.8059,-1.725 0.5058,-0.6524 1.1543,-1.1758 1.8019,-1.6806 0.7318,-0.5424 1.485,-1.056 2.2513,-1.5483 0.887,-0.5662 1.821,-1.0505 2.7484,-1.5454 0.8151,-0.4401 1.6445,-0.8526 2.4652,-1.2819 0.7106,-0.3652 1.3936,-0.7762 2.0499,-1.231 0.7274,-0.5135 1.3143,-1.1798 1.8686,-1.8689 0.5612,-0.6611 0.9394,-1.4276 1.2667,-2.2229 0.3234,-0.7877 0.5629,-1.6035 0.7724,-2.4276 0.194,-0.8009 0.2817,-1.6196 0.3385,-2.4399 0.067,-0.8536 -0.021,-1.702 -0.1459,-2.5453 -0.1509,-0.9413 -0.3818,-1.8661 -0.605,-2.792 -0.2389,-0.9386 -0.5528,-1.8551 -0.9225,-2.7496 -0.3788,-0.9266 -0.8597,-1.8032 -1.3354,-2.682 -0.469,-0.867 -1.0004,-1.6963 -1.5457,-2.5164 -0.5294,-0.7744 -1.0898,-1.5259 -1.6003,-2.3131 -0.4766,-0.7517 -0.9249,-1.5202 -1.3284,-2.3135 -0.3805,-0.7624 -0.6977,-1.5534 -0.9935,-2.3517 -0.2763,-0.7797 -0.5115,-1.5735 -0.7098,-2.3765 -0.09,-0.3749 -0.1635,-0.7532 -0.2374,-1.1314 0,0 0.3088,-0.1649 0.3088,-0.1649 l 0,0 c 0.074,0.3778 0.1471,0.7556 0.2362,1.1301 0.1971,0.8019 0.4321,1.5945 0.7077,2.3731 0.295,0.7972 0.6113,1.5872 0.9911,2.3484 0.403,0.7923 0.8503,1.5599 1.3262,2.3106 0.5104,0.7871 1.0708,1.5384 1.5997,2.3129 0.5457,0.8213 1.0777,1.6514 1.5471,2.5194 0.4762,0.8798 0.9577,1.7575 1.3372,2.6851 0.371,0.8959 0.6856,1.8139 0.9255,2.7541 0.2232,0.9269 0.4547,1.8525 0.6066,2.7946 0.1264,0.8453 0.2169,1.6957 0.1503,2.5516 -0.056,0.822 -0.143,1.6426 -0.3359,2.4456 -0.209,0.8255 -0.4476,1.6429 -0.7707,2.4322 -0.3262,0.7978 -0.7007,1.5686 -1.2625,2.232 -0.5536,0.6913 -1.1389,1.361 -1.8652,1.8783 -0.8428,0.5884 -1.7417,1.0899 -2.6461,1.577 -0.821,0.4285 -1.6498,0.8419 -2.4648,1.2819 -0.725,0.3865 -1.4608,0.7548 -2.1522,1.2007 -0.7669,0.4909 -1.5193,1.0049 -2.2523,1.5452 -0.6471,0.5022 -1.295,1.0232 -1.804,1.6705 -0.3705,0.5181 -0.6977,1.075 -0.8117,1.7105 -0.1116,0.6168 -0.087,1.2257 0.2208,1.7881 0.454,0.6877 1.0339,1.2297 1.7702,1.6141 1.0412,0.5691 2.152,0.9951 3.2878,1.3358 1.4856,0.4218 2.9831,0.8043 4.5133,1.0295 1.8464,0.2769 3.7029,0.525 5.568,0.6266 1.5233,0.01 3.0219,-0.1807 4.5165,-0.4768 1.2894,-0.2301 2.5929,-0.4474 3.824,-0.9094 0.7759,-0.3033 1.5485,-0.6284 2.2507,-1.0821 0.7454,-0.4921 1.4646,-1.0227 2.0309,-1.7233 0.5517,-0.6921 1.0473,-1.4278 1.4592,-2.2124 0.3954,-0.744 0.7891,-1.4886 1.1436,-2.2533 0.3356,-0.6398 0.7044,-1.2635 1.1861,-1.8066 0.4886,-0.5393 0.9969,-1.0652 1.5575,-1.5305 0.6962,-0.5397 1.4595,-0.9844 2.2793,-1.3102 0.7207,-0.2571 1.457,-0.4794 2.2176,-0.5816 0.7914,-0.097 1.5879,-0.1633 2.3861,-0.1491 0.8184,0.022 1.6343,0.1131 2.4154,0.373 0.7414,0.2526 1.4496,0.5844 2.0842,1.0491 0.6198,0.4427 1.2056,0.9277 1.7148,1.4972 0.4798,0.5413 0.9275,1.114 1.2414,1.7704 0.3363,0.6646 0.5845,1.3623 0.7245,2.096 0.158,0.8728 0.2381,1.7559 0.2652,2.6424 0.033,0.9874 0.034,1.9759 -0.01,2.9631 -0.048,1.0338 -0.1203,2.0683 -0.2594,3.0942 -0.1425,0.9843 -0.3292,1.9606 -0.5639,2.9273 -0.2271,0.9486 -0.4824,1.8893 -0.7292,2.8328 -0.1955,0.8388 -0.3849,1.6813 -0.5037,2.5348 -0.1027,0.7789 -0.1756,1.5622 -0.1508,2.349 0.035,0.7305 0.1234,1.457 0.3636,2.1523 0.2388,0.6915 0.5405,1.355 0.9893,1.9388 0.4504,0.6094 0.9336,1.1965 1.5036,1.6994 0.5931,0.5024 1.2377,0.9289 1.9659,1.2128 0.7538,0.2998 1.5231,0.5481 2.3078,0.7547 0.831,0.2483 1.6612,0.5015 2.5142,0.6654 0.8361,0.1549 1.68,0.2675 2.5321,0.2704 0.7995,0.017 1.6059,0.025 2.3885,-0.1664 0.5618,-0.1628 1.1295,-0.3472 1.6353,-0.6323 0.5725,-0.3609 1.1011,-0.7878 1.5253,-1.3197 0.4238,-0.5438 0.7822,-1.123 1.013,-1.7772 0.2705,-0.6247 0.5332,-1.2564 0.6777,-1.9245 0.1511,-0.7061 0.2705,-1.4198 0.3281,-2.1402 0.046,-0.7023 0.091,-1.4064 0.047,-2.1102 -0.038,-0.7063 -0.1213,-1.4065 -0.2759,-2.0978 -0.1569,-0.7093 -0.3603,-1.4075 -0.6331,-2.0817 -0.2701,-0.6925 -0.5373,-1.3868 -0.8477,-2.0627 -0.3177,-0.7015 -0.6375,-1.4022 -0.9343,-2.1129 -0.2913,-0.7238 -0.5888,-1.4459 -0.831,-2.1882 -0.2266,-0.7258 -0.4329,-1.4576 -0.6353,-2.1906 -0.1898,-0.7415 -0.3751,-1.4843 -0.588,-2.2196 -0.2047,-0.7215 -0.403,-1.4448 -0.6218,-2.1623 -0.2157,-0.7326 -0.4132,-1.4705 -0.6471,-2.1976 -0.2428,-0.7509 -0.4801,-1.5035 -0.7403,-2.2486 -0.2503,-0.7528 -0.5228,-1.4978 -0.7776,-2.2492 -0.2279,-0.7186 -0.4617,-1.4386 -0.5931,-2.1826 -0.1474,-0.7918 -0.262,-1.5903 -0.316,-2.3944 -0.062,-0.9285 -0.076,-1.8586 -0.072,-2.7892 0.01,-1.0075 0.045,-2.015 0.099,-3.0211 0.076,-0.9833 0.1584,-1.9663 0.2636,-2.947 0.1065,-0.9426 0.2175,-1.8849 0.3638,-2.8222 0.1428,-0.8643 0.313,-1.7234 0.4618,-2.5865 0.1547,-0.8608 0.3263,-1.7187 0.5449,-2.5658 0.2174,-0.8173 0.4559,-1.6294 0.7539,-2.4216 0.3031,-0.7788 0.6413,-1.5424 1.0192,-2.288 0.3477,-0.7222 0.7474,-1.412 1.1798,-2.0869 0.3903,-0.6368 0.7751,-1.2768 1.1598,-1.9169 0.431,-0.723 0.8599,-1.4475 1.2239,-2.2075 0.3687,-0.6824 0.7744,-1.3419 1.1974,-1.9921 0.4053,-0.6422 0.7804,-1.3028 1.17,-1.9546 0.4226,-0.6986 0.8317,-1.4054 1.2519,-2.1054 0.3913,-0.6324 0.8092,-1.2471 1.2346,-1.8569 0.384,-0.5547 0.7653,-1.112 1.1747,-1.6484 0.4029,-0.5123 0.8062,-1.0244 1.2162,-1.5309 0.4139,-0.486 0.7944,-0.9986 1.1682,-1.5159 0.3613,-0.5343 0.7224,-1.0775 0.9579,-1.6814 0.2027,-0.5384 0.3809,-1.0908 0.4241,-1.6683 0.028,-0.6349 -0.048,-1.2523 -0.2974,-1.8434 -0.287,-0.6495 -0.6721,-1.2413 -1.2006,-1.7231 -0.6326,-0.5604 -1.3166,-1.0629 -2.0726,-1.4461 -0.855,-0.3979 -1.7626,-0.6428 -2.7025,-0.7394 -0.9495,-0.093 -1.9021,-0.1127 -2.853,-0.016 -0.8813,0.1164 -1.7528,0.2938 -2.5987,0.5724 -0.6446,0.2251 -1.2858,0.4699 -1.8887,0.7914 -0.655,0.3812 -1.2852,0.8041 -1.8867,1.2652 -0.6182,0.4987 -1.2019,1.0373 -1.6825,1.6737 -0.5097,0.6806 -0.9257,1.4162 -1.3041,2.1774 -0.4048,0.8179 -0.7954,1.6428 -1.2123,2.4547 -0.3862,0.825 -0.766,1.6532 -1.1771,2.4661 -0.3877,0.7004 -0.8203,1.3785 -1.3559,1.9767 -0.498,0.5491 -1.0232,1.064 -1.6423,1.4785 -0.7193,0.4679 -1.4727,0.89 -2.3051,1.119 -0.7382,0.195 -1.4868,0.3237 -2.2542,0.2994 -0.7667,-0.01 -1.5377,-0.025 -2.2909,-0.1854 -0.8098,-0.1977 -1.5857,-0.4953 -2.3235,-0.8854 -0.7711,-0.3973 -1.5299,-0.8227 -2.2162,-1.3573 -0.6497,-0.5055 -1.2666,-1.05 -1.8178,-1.6633 -0.4985,-0.5765 -0.983,-1.1675 -1.3216,-1.8559 -0.3658,-0.7148 -0.7169,-1.442 -0.9429,-2.2152 -0.215,-0.8054 -0.3433,-1.6254 -0.2433,-2.4609 0.072,-0.8559 0.2045,-1.7027 0.3908,-2.5414 0.1631,-0.8681 0.3442,-1.7325 0.5126,-2.5995 0.159,-0.7821 0.3162,-1.565203 0.4424,-2.353303 0.056,-0.3812 0.094,-0.7598 0.074,-1.1454 0,0 0.3174,-0.1618 0.3174,-0.1618 z"
       id="path5965-9"
       style="fill:#e4e4e4;fill-opacity:1;stroke:#c00000;stroke-width:3;stroke-linecap:round;stroke-linejoin:round;stroke-miterlimit:4;stroke-opacity:1;stroke-dasharray:none;stroke-dashoffset:0" />
    <path
       inkscape:connector-curvature="0"
       id="path3274"
       d="m -802.49609,-72.142827 c -66.4286,0 -94.53951,0 -94.53951,0"
       style="fill:none;stroke:#000000;stroke-width:23.29999924;stroke-linecap:butt;stroke-linejoin:miter;stroke-miterlimit:4;stroke-opacity:1;stroke-dasharray:none;marker-end:url(#TriangleOutS)"
       sodipodi:nodetypes="cc" />
    <path
       sodipodi:nodetypes="cc"
       inkscape:connector-curvature="0"
       id="path3274-8"
       d="m -562.05379,-186.74883 c 46.9721,-46.9721 199.8711,-46.1352 227.7374,-46.1352"
       style="fill:none;stroke:#000000;stroke-width:6;stroke-linecap:butt;stroke-linejoin:miter;stroke-miterlimit:4;stroke-opacity:1;stroke-dasharray:none;marker-end:url(#TriangleOutM)" />
    <path
       sodipodi:nodetypes="cc"
       inkscape:connector-curvature="0"
       id="path3274-5"
       d="m -520.16669,-133.10583 c 14.0532,-8.1136 171.3721,-19.4076 185.8503,-19.4076"
       style="fill:none;stroke:#000000;stroke-width:6;stroke-linecap:butt;stroke-linejoin:miter;stroke-miterlimit:4;stroke-opacity:1;stroke-dasharray:none;marker-end:url(#TriangleOutM)" />
    <path
       sodipodi:nodetypes="cc"
       inkscape:connector-curvature="0"
       id="path3274-5-6"
       d="m -506.28069,-72.142827 171.9643,-1e-4"
       style="fill:none;stroke:#000000;stroke-width:6;stroke-linecap:butt;stroke-linejoin:miter;stroke-miterlimit:4;stroke-opacity:1;stroke-dasharray:none;marker-end:url(#TriangleOutM)" />
    <path
       sodipodi:nodetypes="cc"
       inkscape:connector-curvature="0"
       id="path3274-8-3"
       d="m -568.22429,42.462973 c 46.9721,46.9721 206.0416,46.1352 233.9079,46.1352"
       style="fill:none;stroke:#000000;stroke-width:6;stroke-linecap:butt;stroke-linejoin:miter;stroke-miterlimit:4;stroke-opacity:1;stroke-dasharray:none;marker-end:url(#TriangleOutM)" />
    <path
       sodipodi:nodetypes="cc"
       inkscape:connector-curvature="0"
       id="path3274-5-2"
       d="m -526.33719,-11.180027 c 14.0532,8.1136 177.5426,19.4077 192.0208,19.4077"
       style="fill:none;stroke:#000000;stroke-width:6;stroke-linecap:butt;stroke-linejoin:miter;stroke-miterlimit:4;stroke-opacity:1;stroke-dasharray:none;marker-end:url(#TriangleOutM)" />
    <text
       sodipodi:linespacing="125%"
       id="text5778"
       y="-226.53017"
       x="296.11328"
       style="font-size:13px;font-style:normal;font-weight:normal;text-align:end;line-height:125%;letter-spacing:0px;word-spacing:0px;text-anchor:end;fill:#000000;fill-opacity:1;stroke:none;font-family:Sans"
       xml:space="preserve"><tspan
         style="font-size:20px;font-weight:bold;text-align:end;text-anchor:end;-inkscape-font-specification:Sans Bold"
         y="-226.53017"
         x="296.11328"
         id="tspan5780"
         sodipodi:role="line">&lt; 10 %</tspan></text>
    <text
       sodipodi:linespacing="125%"
       id="text5778-8"
       y="-142.99521"
       x="275.25391"
       style="font-size:13px;font-style:normal;font-weight:normal;text-align:end;line-height:125%;letter-spacing:0px;word-spacing:0px;text-anchor:end;fill:#000000;fill-opacity:1;stroke:none;font-family:Sans"
       xml:space="preserve"><tspan
         style="font-size:20px;font-weight:bold;text-align:end;text-anchor:end;-inkscape-font-specification:Sans Bold"
         y="-142.99521"
         x="275.25391"
         id="tspan5780-5"
         sodipodi:role="line">&lt; 1%</tspan></text>
    <text
       sodipodi:linespacing="125%"
       id="text5778-7"
       y="-62.436813"
       x="317.63672"
       style="font-size:13px;font-style:normal;font-weight:normal;text-align:end;line-height:125%;letter-spacing:0px;word-spacing:0px;text-anchor:end;fill:#000000;fill-opacity:1;stroke:none;font-family:Sans"
       xml:space="preserve"><tspan
         style="font-size:20px;font-weight:bold;text-align:end;text-anchor:end;-inkscape-font-specification:Sans Bold"
         y="-62.436813"
         x="317.63672"
         id="tspan5780-6"
         sodipodi:role="line">&lt; 0.01 %</tspan></text>
    <text
       sodipodi:linespacing="125%"
       id="text5778-1"
       y="17.996613"
       x="256.93359"
       style="font-size:13px;font-style:normal;font-weight:normal;text-align:end;line-height:125%;letter-spacing:0px;word-spacing:0px;text-anchor:end;fill:#000000;fill-opacity:1;stroke:none;font-family:Sans"
       xml:space="preserve"><tspan
         style="font-size:20px;font-weight:bold;text-align:end;text-anchor:end;-inkscape-font-specification:Sans Bold"
         y="17.996613"
         x="256.93359"
         id="tspan5780-8"
         sodipodi:role="line">? %</tspan></text>
    <text
       sodipodi:linespacing="125%"
       id="text5778-9"
       y="96.305008"
       x="256.93359"
       style="font-size:13px;font-style:normal;font-weight:normal;text-align:end;line-height:125%;letter-spacing:0px;word-spacing:0px;text-anchor:end;fill:#000000;fill-opacity:1;stroke:none;font-family:Sans"
       xml:space="preserve"><tspan
         style="font-size:20px;font-weight:bold;text-align:end;text-anchor:end;-inkscape-font-specification:Sans Bold"
         y="96.305008"
         x="256.93359"
         id="tspan5780-2"
         sodipodi:role="line">? %</tspan></text>
    <text
       sodipodi:linespacing="125%"
       id="text5778-79"
       y="-132.6246"
       x="-993.7644"
       style="font-size:28px;font-style:normal;font-weight:normal;text-align:end;line-height:125%;letter-spacing:0px;word-spacing:0px;text-anchor:end;fill:#800000;fill-opacity:1;stroke:none;font-family:Sans"
       xml:space="preserve"><tspan
         style="font-size:28px;font-weight:bold;text-align:end;text-anchor:end;fill:#800000;-inkscape-font-specification:Sans Bold"
         y="-132.6246"
         x="-993.7644"
         id="tspan5780-54"
         sodipodi:role="line">&gt; 80 %</tspan></text>
    <text
       xml:space="preserve"
       style="font-size:13px;font-style:normal;font-weight:normal;line-height:125%;letter-spacing:0px;word-spacing:0px;fill:#000000;fill-opacity:1;stroke:none;font-family:Sans"
       x="-1189.9597"
       y="-152.92097"
       id="text6096"
       sodipodi:linespacing="125%"
       transform="translate(0,308.2677)"><tspan
         sodipodi:role="line"
         id="tspan6098"
         x="-1189.9597"
         y="-152.92097" /></text>
    <text
       xml:space="preserve"
       style="font-size:13px;font-style:normal;font-weight:normal;line-height:125%;letter-spacing:0px;word-spacing:0px;fill:#000000;fill-opacity:1;stroke:none;font-family:Sans"
       x="-952.67175"
       y="-80.681892"
       id="text6100"
       sodipodi:linespacing="125%"><tspan
         sodipodi:role="line"
         x="-952.67175"
         y="-80.681892"
         style="font-size:32px;font-weight:bold;text-align:end;text-anchor:end;-inkscape-font-specification:Sans Bold"
         id="tspan6165">rAAV vector</tspan><tspan
         sodipodi:role="line"
         x="-952.67175"
         y="-40.681892"
         style="font-size:32px;font-weight:bold;text-align:end;text-anchor:end;-inkscape-font-specification:Sans Bold"
         id="tspan3086">genomes</tspan></text>
    <text
       xml:space="preserve"
       style="font-size:13px;font-style:normal;font-weight:normal;line-height:125%;letter-spacing:0px;word-spacing:0px;fill:#000000;fill-opacity:1;stroke:none;font-family:Sans"
       x="-246.71228"
       y="-221.88075"
       id="text6100-3"
       sodipodi:linespacing="125%"><tspan
         sodipodi:role="line"
         x="-246.71228"
         y="-221.88075"
         style="font-size:32px;font-weight:bold;-inkscape-font-specification:Sans Bold"
         id="tspan6104-1">Bacterial backbone</tspan></text>
    <text
       xml:space="preserve"
       style="font-size:13px;font-style:normal;font-weight:normal;line-height:125%;letter-spacing:0px;word-spacing:0px;fill:#000000;fill-opacity:1;stroke:none;font-family:Sans"
       x="-246.71228"
       y="-141.44736"
       id="text6100-2"
       sodipodi:linespacing="125%"><tspan
         sodipodi:role="line"
         x="-246.71228"
         y="-141.44736"
         style="font-size:32px;font-weight:bold;-inkscape-font-specification:Sans Bold"
         id="tspan6104-3">Helper sequences</tspan></text>
    <text
       xml:space="preserve"
       style="font-size:13px;font-style:normal;font-weight:normal;line-height:125%;letter-spacing:0px;word-spacing:0px;fill:#000000;fill-opacity:1;stroke:none;font-family:Sans"
       x="-246.71228"
       y="-61.013962"
       id="text6100-34"
       sodipodi:linespacing="125%"><tspan
         sodipodi:role="line"
         x="-246.71228"
         y="-61.013962"
         style="font-size:32px;font-weight:bold;-inkscape-font-specification:Sans Bold"
         id="tspan6104-11">Packaging cell genome </tspan></text>
    <text
       xml:space="preserve"
       style="font-size:13px;font-style:normal;font-weight:normal;line-height:125%;letter-spacing:0px;word-spacing:0px;fill:#000000;fill-opacity:1;stroke:none;font-family:Sans"
       x="-246.71228"
       y="19.419464"
       id="text6100-38"
       sodipodi:linespacing="125%"><tspan
         sodipodi:role="line"
         x="-246.71228"
         y="19.419464"
         style="font-size:32px;font-weight:bold;-inkscape-font-specification:Sans Bold"
         id="tspan6104-7">Mutated rAAV genomes</tspan></text>
    <text
       xml:space="preserve"
       style="font-size:13px;font-style:normal;font-weight:normal;line-height:125%;letter-spacing:0px;word-spacing:0px;fill:#000000;fill-opacity:1;stroke:none;font-family:Sans"
       x="-246.71228"
       y="77.852859"
       id="text6100-4"
       sodipodi:linespacing="125%"><tspan
         sodipodi:role="line"
         x="-246.71228"
         y="77.852859"
         style="font-size:32px;font-weight:bold;-inkscape-font-specification:Sans Bold"
         id="tspan6104-2">Unknown / Unexpected</tspan><tspan
         sodipodi:role="line"
         x="-246.71228"
         y="117.85286"
         style="font-size:32px;font-weight:bold;-inkscape-font-specification:Sans Bold"
         id="tspan3088">sequences</tspan></text>
    <text
       xml:space="preserve"
       style="font-size:13px;font-style:normal;font-weight:normal;line-height:125%;letter-spacing:0px;word-spacing:0px;fill:#000000;fill-opacity:1;stroke:none;font-family:Sans"
       x="-754.58392"
       y="-224.6418"
       id="text6167"
       sodipodi:linespacing="125%"
       transform="translate(0,308.2677)"><tspan
         sodipodi:role="line"
         id="tspan6169"
         x="-754.58392"
         y="-224.6418" /></text>
    <text
       xml:space="preserve"
       style="font-size:13px;font-style:normal;font-weight:normal;line-height:125%;letter-spacing:0px;word-spacing:0px;fill:#000000;fill-opacity:1;stroke:none;font-family:Sans"
       x="-196.79584"
       y="-307.67267"
       id="text6175"
       sodipodi:linespacing="125%"><tspan
         sodipodi:role="line"
         id="tspan6177"
         x="-196.79584"
         y="-307.67267"
         style="font-size:32px;font-weight:bold;-inkscape-font-specification:Sans Bold"><tspan
           style="font-size:40px"
           id="tspan6179">DNA CONTAMINANTS </tspan></tspan></text>
    <text
       xml:space="preserve"
       style="font-size:13px;font-style:normal;font-weight:normal;text-align:center;line-height:125%;letter-spacing:0px;word-spacing:0px;text-anchor:middle;fill:#000000;fill-opacity:1;stroke:none;font-family:Sans"
       x="-653.77234"
       y="-259.06638"
       id="text6199"
       sodipodi:linespacing="125%"><tspan
         sodipodi:role="line"
         x="-653.77234"
         y="-259.06638"
         style="font-size:32px;font-weight:bold;text-align:center;text-anchor:middle;-inkscape-font-specification:Sans Bold"
         id="tspan6207">rAAV vectors</tspan><tspan
         sodipodi:role="line"
         x="-653.77234"
         y="-219.06638"
         style="font-size:32px;font-weight:bold;text-align:center;text-anchor:middle;-inkscape-font-specification:Sans Bold"
         id="tspan3082">production</tspan></text>
  </g>
</svg>
