<?xml version="1.0" encoding="UTF-8" standalone="no"?>
<!-- Created with Inkscape (http://www.inkscape.org/) -->

<svg
   xmlns:dc="http://purl.org/dc/elements/1.1/"
   xmlns:cc="http://creativecommons.org/ns#"
   xmlns:rdf="http://www.w3.org/1999/02/22-rdf-syntax-ns#"
   xmlns:svg="http://www.w3.org/2000/svg"
   xmlns="http://www.w3.org/2000/svg"
   xmlns:sodipodi="http://sodipodi.sourceforge.net/DTD/sodipodi-0.dtd"
   xmlns:inkscape="http://www.inkscape.org/namespaces/inkscape"
   width="801.89124"
   height="113.53506"
   id="svg3274"
   version="1.1"
   inkscape:version="0.48.4 r9939"
   sodipodi:docname="DNA.svg">
  <defs
     id="defs3276" />
  <sodipodi:namedview
     id="base"
     pagecolor="#ffffff"
     bordercolor="#666666"
     borderopacity="1.0"
     inkscape:pageopacity="0.0"
     inkscape:pageshadow="2"
     inkscape:zoom="0.74996174"
     inkscape:cx="114.18447"
     inkscape:cy="-55.005282"
     inkscape:document-units="px"
     inkscape:current-layer="layer1"
     showgrid="false"
     fit-margin-top="0"
     fit-margin-left="100"
     fit-margin-right="100"
     fit-margin-bottom="0"
     inkscape:window-width="1918"
     inkscape:window-height="1030"
     inkscape:window-x="1366"
     inkscape:window-y="0"
     inkscape:window-maximized="1" />
  <metadata
     id="metadata3279">
    <rdf:RDF>
      <cc:Work
         rdf:about="">
        <dc:format>image/svg+xml</dc:format>
        <dc:type
           rdf:resource="http://purl.org/dc/dcmitype/StillImage" />
      </cc:Work>
    </rdf:RDF>
  </metadata>
  <g
     inkscape:label="Layer 1"
     inkscape:groupmode="layer"
     id="layer1"
     transform="translate(15.231317,-52.737517)">
    <g
       id="g7731"
       transform="matrix(0.73034938,-0.33382506,0.33382506,0.73034938,-74.228886,-158.11236)"
       style="opacity:0.5">
      <path
         inkscape:connector-curvature="0"
         id="path3703"
         style="opacity:0.98000003999999996;color:#000000;fill:#2b3d4f;fill-opacity:1;fill-rule:nonzero;stroke:none;stroke-width:1.24529098999999999;marker:none;visibility:visible;display:inline;overflow:visible;enable-background:accumulate"
         d="m 421.11469,491.15634 c -10.68207,-2.33853 -22.54755,-2.61546 -35.96694,-0.1656 -9.93071,3.5542 -19.10592,6.52974 -27.60439,8.98581 6.46832,14.84137 12.45719,29.8783 19.07908,43.31235 13.77252,-0.51049 26.108,1.03246 35.76415,6.82852 20.02674,12.02096 32.12294,28.29503 43.01567,44.77521 7.70337,11.65474 14.80655,23.40875 23.68667,33.83306 7.85377,9.21951 17.09368,17.4013 29.37597,23.54521 50.45091,25.23683 113.71255,0.21657 162.59488,-1.061 1.63618,-0.0428 3.22996,0.0282 4.7756,0.20745 -2.25623,-1.66575 -4.55306,-3.28549 -6.90981,-4.84367 -15.20365,-10.05186 -31.17034,-20.06124 -48.19517,-26.68154 -20.58069,-0.7373 -41.82067,0.0428 -60.5684,-7.25239 -0.003,-6.6e-4 -0.004,-9.9e-4 -0.006,-0.001 -2.72038,-1.05881 -5.38704,-2.28267 -7.99279,-3.71111 -11.23399,-6.15822 -21.07675,-15.06146 -30.30747,-25.26722 -30.49496,-33.71613 -54.32557,-81.70031 -99.70794,-92.27398 -0.3421,-0.0798 -0.6884,-0.15647 -1.03346,-0.22985 z M 198.70477,422.397 c -24.68007,-5.4314 -52.62803,3.30316 -79.14213,5.62824 5.97124,14.36566 13.85498,26.62931 27.52317,32.98875 3.02232,1.40621 6.11739,2.42065 9.27235,3.09972 9.76117,-2.36445 17.6898,-2.30284 24.32071,-0.44998 l 0,0 c 13.00559,3.63413 21.02885,14.1574 28.15712,26.74598 0.003,0.004 0.003,0.004 0.004,0.007 10.59875,18.71989 19.21987,42.01322 39.2781,54.05307 21.59766,12.96392 51.58323,9.38287 81.16607,4.77779 -8.87626,-14.3659 -18.01325,-28.35509 -28.87627,-39.83851 -27.31078,-0.50092 -40.66256,-11.63027 -49.75621,-25.83804 -8.00298,-12.5042 -12.70909,-27.38916 -20.73301,-39.50688 -5.98296,-9.03551 -13.80983,-16.53483 -26.2242,-20.3567 -1.64754,-0.5072 -3.31077,-0.94069 -4.99006,-1.31025 z M 43.036866,384.01619 c -1.69111,31.46149 23.37175,67.53954 57.233044,80.68733 -5.146654,-11.51416 -8.386874,-24.58708 -10.922394,-38.13834 -17.70341,-4.19965 -33.71783,-15.84471 -46.31065,-42.54899 z M 693.73962,647.19058 c 6.50276,9.00801 13.89369,20.37327 22.83013,35.35198 2.73906,3.08317 5.11593,5.26992 7.2292,5.73995 0.99703,0.22176 -2.00507,-12.91352 -2.42646,-14.00278 -5.59584,-14.46365 -15.81195,-20.11597 -27.63287,-27.08915 z" />
      <g
         id="g3660"
         style="opacity:0.52800000000000002;fill:#ffd5d5;stroke:none;display:inline"
         transform="matrix(0.17973408,0.03997494,-0.03997494,0.17973408,-473.31507,467.06456)">
        <g
           transform="translate(0,0.00747888)"
           id="g3628"
           style="opacity:0.98000003999999996;fill:#ffd5d5;stroke:none">
          <path
             id="path3509-4"
             transform="translate(1156.5929,1451.1378)"
             style="color:#000000;fill:#2b3d4f;fill-opacity:1;fill-rule:nonzero;stroke:none;stroke-width:6.76325940999999986;marker:none;visibility:visible;display:inline;overflow:visible;enable-background:accumulate"
             d="m 4695.4375,-2103.2812 c -96.4514,0.6347 -195.4321,17.6236 -291.1875,43.2812 -50.0883,13.4211 -98.9941,32.4367 -147.4375,53.5625 60.9706,43.222 123.6504,78.8169 190.4687,98.2187 15.509,4.5033 31.1003,7.8441 46.7813,10.25 70.4066,-23.1756 141.754,-38.7456 214.5937,-40.7187 38.5018,-1.0429 76.906,1.9044 115.0626,7.75 98.0637,15.0233 194.5137,49.2616 286.9687,84.625 14.3535,5.4901 28.46,11.3815 42.4063,17.5625 106.8616,47.3614 202.9949,113.4962 307.125,175.5938 -19.1216,-20.8488 -37.2264,-40.3328 -54.5,-58.625 -65.0273,-68.8618 -117.6277,-120.3816 -162.7188,-160.4688 -104.869,-93.2313 -169.2054,-124.6185 -255.0938,-168.1875 -90.0038,-45.6567 -189.7946,-63.5195 -292.4687,-62.8437 z m -1819.625,-478 c -107.8521,0.1099 -218.0999,88.4489 -331.3125,179 56.8272,54.7813 99.3281,128.1452 156.5,185 34.7726,-6.2997 69.6394,-7.5287 104.5625,-1.6563 69.2929,11.6517 131.5564,40.6834 189.6875,79.9687 71.1253,48.0669 136.0393,111.498 200.0312,177.1876 139.1518,142.8431 273.9171,296.4352 458.4376,326.4687 147.0639,23.9369 288.634,-20.2754 429.5,-81.7813 -59.3756,-44.7984 -110.9121,-98.7277 -165.5,-151.4374 -77.1411,18.8361 -157.2638,23.7641 -243.0313,2.2812 -88.5008,-22.1676 -163.4306,-93.342 -235.4375,-182.9688 -50.9484,-63.4153 -100.425,-136.0675 -152.2188,-207.125 -99.6203,-136.672 -207.7714,-267.4655 -351.3124,-315.3124 -19.89,-6.6301 -39.8549,-9.6456 -59.9063,-9.625 z M 1542.875,-2797.125 c -2.7462,-0.1727 -0.8962,3.2288 7.2188,11.3438 105.1824,105.1823 157.6496,290.62 228.5312,456.5 29.4214,68.8531 62.0117,134.3393 102.875,189.3124 43.3565,58.3272 96.0163,104.8304 164.0625,130.9688 144.2029,55.3923 291.9142,-41.8971 441.8125,-122.6875 -52.6389,-58.3415 -107.5707,-104.6933 -180.8125,-108.625 -42.3766,19.092 -85.1894,30.8083 -128.4687,31.0937 -17.5062,0.1155 -35.0898,-1.6445 -52.75,-5.5312 -79.9691,-17.6 -136.2139,-73.3088 -184.8126,-142.4375 -73.2287,-104.1633 -129.0819,-238.8034 -222.4687,-319.4375 -41.8524,-36.1372 -161.9558,-119.6678 -175.1875,-120.5 z"
             inkscape:connector-curvature="0" />
        </g>
      </g>
    </g>
  </g>
</svg>
