<?xml version="1.0" encoding="UTF-8" standalone="no"?>
<!-- Created with Inkscape (http://www.inkscape.org/) -->

<svg
   xmlns:dc="http://purl.org/dc/elements/1.1/"
   xmlns:cc="http://creativecommons.org/ns#"
   xmlns:rdf="http://www.w3.org/1999/02/22-rdf-syntax-ns#"
   xmlns:svg="http://www.w3.org/2000/svg"
   xmlns="http://www.w3.org/2000/svg"
   xmlns:sodipodi="http://sodipodi.sourceforge.net/DTD/sodipodi-0.dtd"
   xmlns:inkscape="http://www.inkscape.org/namespaces/inkscape"
   width="1202.2756"
   height="362.59375"
   id="svg14753"
   version="1.1"
   inkscape:version="0.48.4 r9939"
   sodipodi:docname="insilico.svg">
  <defs
     id="defs14755">
    <clipPath
       id="clipEmfPath2-0-5"
       clipPathUnits="userSpaceOnUse">
      <rect
         id="rect8610-7"
         height="179.68433"
         width="329.97629"
         y="22.98288"
         x="64.915825"
         style="stroke-linecap:square;stroke-linejoin:round" />
    </clipPath>
    <clipPath
       id="clipEmfPath10-11-1"
       clipPathUnits="userSpaceOnUse">
      <rect
         id="rect8634-6"
         height="179.68433"
         width="329.97629"
         y="22.98288"
         x="64.915825"
         style="stroke-linecap:square;stroke-linejoin:round" />
    </clipPath>
    <clipPath
       id="clipEmfPath18-6-9"
       clipPathUnits="userSpaceOnUse">
      <rect
         id="rect8658-2"
         height="179.68433"
         width="329.97629"
         y="22.98288"
         x="64.915825"
         style="stroke-linecap:square;stroke-linejoin:round" />
    </clipPath>
    <clipPath
       id="clipEmfPath34-7-0"
       clipPathUnits="userSpaceOnUse">
      <rect
         id="rect8706-6"
         height="179.68433"
         width="329.97629"
         y="22.98288"
         x="64.915825"
         style="stroke-linecap:square;stroke-linejoin:round" />
    </clipPath>
    <clipPath
       id="clipEmfPath42-9-1"
       clipPathUnits="userSpaceOnUse">
      <rect
         id="rect8730-3"
         height="179.68433"
         width="329.97629"
         y="22.98288"
         x="64.915825"
         style="stroke-linecap:square;stroke-linejoin:round" />
    </clipPath>
    <clipPath
       id="clipEmfPath6-45-1"
       clipPathUnits="userSpaceOnUse">
      <rect
         id="rect8622-0"
         height="179.68433"
         width="329.97629"
         y="22.98288"
         x="64.915825"
         style="stroke-linecap:square;stroke-linejoin:round" />
    </clipPath>
    <clipPath
       id="clipEmfPath14-42-8"
       clipPathUnits="userSpaceOnUse">
      <rect
         id="rect8646-5"
         height="179.68433"
         width="329.97629"
         y="22.98288"
         x="64.915825"
         style="stroke-linecap:square;stroke-linejoin:round" />
    </clipPath>
    <clipPath
       id="clipEmfPath22-18-1"
       clipPathUnits="userSpaceOnUse">
      <rect
         id="rect8670-5"
         height="179.68433"
         width="329.97629"
         y="22.98288"
         x="64.915825"
         style="stroke-linecap:square;stroke-linejoin:round" />
    </clipPath>
    <clipPath
       id="clipEmfPath38-7-6"
       clipPathUnits="userSpaceOnUse">
      <rect
         id="rect8718-6"
         height="179.68433"
         width="329.97629"
         y="22.98288"
         x="64.915825"
         style="stroke-linecap:square;stroke-linejoin:round" />
    </clipPath>
    <clipPath
       id="clipEmfPath46-0-0"
       clipPathUnits="userSpaceOnUse">
      <rect
         id="rect8742-0"
         height="179.68433"
         width="329.97629"
         y="22.98288"
         x="64.915825"
         style="stroke-linecap:square;stroke-linejoin:round" />
    </clipPath>
    <clipPath
       id="clipEmfPath16-22-3"
       clipPathUnits="userSpaceOnUse">
      <rect
         id="rect8652-8"
         height="179.68433"
         width="329.97629"
         y="22.98288"
         x="64.915825"
         style="stroke-linecap:square;stroke-linejoin:round" />
    </clipPath>
    <clipPath
       id="clipEmfPath48-86-1"
       clipPathUnits="userSpaceOnUse">
      <rect
         id="rect8748-4"
         height="179.68433"
         width="329.97629"
         y="22.98288"
         x="64.915825"
         style="stroke-linecap:square;stroke-linejoin:round" />
    </clipPath>
    <clipPath
       id="clipEmfPath20-5-3-2"
       clipPathUnits="userSpaceOnUse">
      <rect
         id="rect8664-7-4"
         height="179.68433"
         width="329.97629"
         y="22.98288"
         x="64.915825"
         style="stroke-linecap:square;stroke-linejoin:round" />
    </clipPath>
    <clipPath
       id="clipEmfPath36-2-1-9"
       clipPathUnits="userSpaceOnUse">
      <rect
         id="rect8712-0-1"
         height="179.68433"
         width="329.97629"
         y="22.98288"
         x="64.915825"
         style="stroke-linecap:square;stroke-linejoin:round" />
    </clipPath>
  </defs>
  <sodipodi:namedview
     id="base"
     pagecolor="#ffffff"
     bordercolor="#666666"
     borderopacity="1.0"
     inkscape:pageopacity="0.0"
     inkscape:pageshadow="2"
     inkscape:zoom="0.49497475"
     inkscape:cx="646.84434"
     inkscape:cy="168.90048"
     inkscape:document-units="px"
     inkscape:current-layer="layer1"
     showgrid="false"
     fit-margin-top="20"
     fit-margin-left="0"
     fit-margin-right="0"
     fit-margin-bottom="20"
     inkscape:window-width="1097"
     inkscape:window-height="741"
     inkscape:window-x="1839"
     inkscape:window-y="126"
     inkscape:window-maximized="0" />
  <metadata
     id="metadata14758">
    <rdf:RDF>
      <cc:Work
         rdf:about="">
        <dc:format>image/svg+xml</dc:format>
        <dc:type
           rdf:resource="http://purl.org/dc/dcmitype/StillImage" />
        <dc:title />
      </cc:Work>
    </rdf:RDF>
  </metadata>
  <g
     inkscape:label="Layer 1"
     inkscape:groupmode="layer"
     id="layer1"
     transform="translate(69.853588,-89.654032)">
    <text
       xml:space="preserve"
       x="704.50604"
       y="131.52698"
       style="font-size:28px;font-style:normal;font-weight:bold;text-align:start;text-anchor:start;fill:#000000;stroke-linecap:square;stroke-linejoin:round;font-family:Arial;-inkscape-font-specification:Arial Bold"
       id="text9280-9">rAAV genome<tspan
   style="font-weight:normal"
   id="tspan3073"> (14 M reads)</tspan></text>
    <path
       inkscape:connector-curvature="0"
       style="color:#000000;fill:#ff0000;fill-opacity:1;fill-rule:nonzero;stroke:#000000;stroke-width:0.89952648px;stroke-linecap:round;stroke-linejoin:round;stroke-miterlimit:4;stroke-opacity:1;stroke-dasharray:none;stroke-dashoffset:0;marker:none;visibility:visible;display:inline;overflow:visible;enable-background:accumulate"
       d="m 665.0711,113.64922 0,0 26.173,0 0,15.7125 -26.173,0 0,-15.7125"
       id="path9282-5" />
    <text
       xml:space="preserve"
       x="704.50604"
       y="201.09308"
       style="font-size:28px;font-style:normal;font-weight:bold;text-align:start;text-anchor:start;fill:#000000;stroke-linecap:square;stroke-linejoin:round;font-family:Arial;-inkscape-font-specification:Arial Bold"
       id="text9286-4">Vector Backbone<tspan
   style="font-weight:normal"
   id="tspan3070"> (440k reads )</tspan></text>
    <path
       inkscape:connector-curvature="0"
       style="color:#000000;fill:#ff6600;fill-opacity:1;fill-rule:nonzero;stroke:#000000;stroke-width:0.89952648px;stroke-linecap:round;stroke-linejoin:round;stroke-miterlimit:4;stroke-opacity:1;stroke-dasharray:none;stroke-dashoffset:0;marker:none;visibility:visible;display:inline;overflow:visible;enable-background:accumulate"
       d="m 665.0711,183.37943 0,0 26.173,0 0,15.71242 -26.173,0 0,-15.71242"
       id="path9288-3" />
    <path
       inkscape:connector-curvature="0"
       style="fill:none;stroke:#000000;stroke-width:0.14992106px;stroke-linecap:round;stroke-linejoin:round;stroke-opacity:1;stroke-dasharray:none"
       d="M 705.9661,120.96317"
       id="path9290-3" />
    <text
       xml:space="preserve"
       x="704.50604"
       y="268.97949"
       style="font-size:28px;font-style:normal;font-weight:bold;text-align:start;text-anchor:start;fill:#000000;stroke-linecap:square;stroke-linejoin:round;font-family:Arial;-inkscape-font-specification:Arial Bold"
       id="text9292-1">Helper Plasmid <tspan
   style="font-weight:normal"
   id="tspan3075">(5k reads)</tspan></text>
    <path
       inkscape:connector-curvature="0"
       style="color:#000000;fill:#71c837;fill-opacity:1;fill-rule:nonzero;stroke:#000000;stroke-width:0.89952648px;stroke-linecap:round;stroke-linejoin:round;stroke-miterlimit:4;stroke-opacity:1;stroke-dasharray:none;stroke-dashoffset:0;marker:none;visibility:visible;display:inline;overflow:visible;enable-background:accumulate"
       d="m 665.0711,253.86347 0,0 26.173,0 0,15.71248 -26.173,0 0,-15.71248"
       id="path9294-5" />
    <path
       inkscape:connector-curvature="0"
       style="fill:none;stroke:#000000;stroke-width:0.14992106px;stroke-linecap:round;stroke-linejoin:round;stroke-opacity:1;stroke-dasharray:none"
       d="M 705.9661,223.54758"
       id="path9302-7" />
    <text
       xml:space="preserve"
       x="704.50604"
       y="342.03003"
       style="font-size:28px;font-style:normal;font-weight:bold;text-align:start;text-anchor:start;fill:#000000;stroke-linecap:square;stroke-linejoin:round;font-family:Arial;-inkscape-font-specification:Arial Bold"
       id="text9304-6">Human Genome<tspan
   style="font-weight:normal"
   id="tspan3077"> (29k reads)</tspan></text>
    <path
       inkscape:connector-curvature="0"
       style="color:#000000;fill:#5599ff;fill-opacity:1;fill-rule:nonzero;stroke:#000000;stroke-width:0.89952648px;stroke-linecap:round;stroke-linejoin:round;stroke-miterlimit:4;stroke-opacity:1;stroke-dasharray:none;stroke-dashoffset:0;marker:none;visibility:visible;display:inline;overflow:visible;enable-background:accumulate"
       d="m 665.0711,324.31636 0,0 26.173,0 0,15.71246 -26.173,0 0,-15.71246"
       id="path9306-8" />
    <path
       inkscape:connector-curvature="0"
       style="fill:none;stroke:#000000;stroke-width:0.14992106px;stroke-linecap:round;stroke-linejoin:round;stroke-opacity:1;stroke-dasharray:none"
       d="M 705.9661,326.13195"
       id="path9308-0" />
    <text
       xml:space="preserve"
       x="704.50604"
       y="408.85004"
       style="font-size:28px;font-style:normal;font-weight:bold;text-align:start;text-anchor:start;fill:#000000;stroke-linecap:square;stroke-linejoin:round;font-family:Arial;-inkscape-font-specification:Arial Bold"
       id="text9310-0">Random Unmapped<tspan
   style="font-weight:normal"
   id="tspan3079"> (200k reads)</tspan></text>
    <path
       inkscape:connector-curvature="0"
       style="color:#000000;fill:#333333;fill-opacity:1;fill-rule:nonzero;stroke:#000000;stroke-width:0.89952648px;stroke-linecap:round;stroke-linejoin:round;stroke-miterlimit:4;stroke-opacity:1;stroke-dasharray:none;stroke-dashoffset:0;marker:none;visibility:visible;display:inline;overflow:visible;enable-background:accumulate"
       d="m 665.0711,393.73402 0,0 26.173,0 0,15.71246 -26.173,0 0,-15.71246"
       id="path9312-0" />
    <g
       id="g15012"
       transform="matrix(1.1431888,0,0,1.1431888,-4.6946419,-546.90695)">
      <path
         sodipodi:nodetypes="cc"
         id="path9262-2-5"
         d="m 525.626,760.38091 -513.085,0"
         style="fill:#666666;stroke:#4d4d4d;stroke-width:0.99999994;stroke-linecap:butt;stroke-linejoin:round;stroke-miterlimit:4;stroke-opacity:1;stroke-dasharray:0.99999998, 0.99999998;stroke-dashoffset:0"
         inkscape:connector-curvature="0" />
      <path
         sodipodi:nodetypes="cc"
         id="path9266-4-0"
         d="m 525.626,700.68161 -513.085,0"
         style="fill:#666666;stroke:#4d4d4d;stroke-width:0.99999994;stroke-linecap:butt;stroke-linejoin:round;stroke-miterlimit:4;stroke-opacity:1;stroke-dasharray:0.99999998, 0.99999998;stroke-dashoffset:0"
         inkscape:connector-curvature="0" />
      <path
         sodipodi:nodetypes="cc"
         id="path9270-6-6"
         d="m 525.626,640.98234 -513.085,0"
         style="fill:#666666;stroke:#4d4d4d;stroke-width:0.99999994;stroke-linecap:butt;stroke-linejoin:round;stroke-miterlimit:4;stroke-opacity:1;stroke-dasharray:0.99999998, 0.99999998;stroke-dashoffset:0"
         inkscape:connector-curvature="0" />
      <path
         sodipodi:nodetypes="cc"
         id="path9274-1-2"
         d="m 525.626,581.28303 -513.085,0"
         style="fill:#666666;stroke:#4d4d4d;stroke-width:0.99999994;stroke-linecap:butt;stroke-linejoin:round;stroke-miterlimit:4;stroke-opacity:1;stroke-dasharray:0.99999998, 0.99999998;stroke-dashoffset:0"
         inkscape:connector-curvature="0" />
      <path
         id="path8752-7"
         d="m 11.41,578.78863 514.52,0 0,200.21711 -514.52,0 z"
         style="fill:none;stroke:none"
         inkscape:connector-curvature="0" />
      <text
         sodipodi:linespacing="125%"
         id="text9608-02-5"
         y="822.35229"
         x="71.238235"
         style="font-size:25.14241219px;font-style:normal;font-weight:normal;text-align:center;line-height:125%;letter-spacing:0px;word-spacing:0px;text-anchor:middle;fill:#000000;fill-opacity:1;stroke:none;font-family:Sans"
         xml:space="preserve"><tspan
           id="tspan9612-6-0"
           y="822.35229"
           x="71.238235"
           sodipodi:role="line">True</tspan><tspan
           id="tspan19759-0-2"
           y="853.78033"
           x="71.238235"
           sodipodi:role="line">Positive</tspan></text>
      <path
         id="path81393-6-2-83-2"
         style="fill:none;stroke:#000000;stroke-width:1;stroke-linecap:butt;stroke-linejoin:miter;stroke-miterlimit:4;stroke-opacity:1;stroke-dasharray:none;display:inline"
         d="m 123.402,786.05821 c 0,0 -0.09,1.2161 -0.253,1.79359 -0.143,0.50408 -0.44,0.98683 -0.833,1.35584 -0.499,0.46778 -1.177,0.73914 -1.826,0.9923 -0.72,0.28017 -1.484,0.47289 -2.256,0.56846 -14.289,1.77059 -28.948,-1.77059 -43.24,0 -0.564,0.0699 -1.156,0.14835 -1.651,0.41644 -0.482,0.26249 -0.903,0.65904 -1.182,1.11369 -0.276,0.4493 -0.366,0.98902 -0.438,1.50337 0,0.42937 0,0.90052 0,0.90052 m -51.677,-8.64421 c 0,0 0.09,1.2161 0.253,1.79359 0.14,0.50408 0.441,0.98683 0.833,1.35584 0.496,0.46778 1.175,0.73914 1.826,0.9923 0.718,0.28017 1.483,0.47289 2.253,0.56846 14.292,1.77059 28.949,-1.77059 43.243,0 0.562,0.0699 1.156,0.14835 1.65,0.41644 0.482,0.26249 0.904,0.65904 1.183,1.11369 0.275,0.4493 0.365,0.98902 0.436,1.50337 0,0.36452 0,0.90052 0,0.90052"
         inkscape:connector-curvature="0"
         sodipodi:nodetypes="cssssssscccssssssscc" />
      <path
         transform="matrix(1.5714007,0,0,1.1142714,-92.486,552.84686)"
         id="path8754-0-9"
         d="m 72.112039,202.21949 0,0 0,-176.699539 9.445028,0 0,176.699539"
         clip-path="url(#clipEmfPath2-0-5)"
         style="fill:#ff0000;stroke:#000000;stroke-width:0.67979038px;stroke-linecap:round;stroke-linejoin:round;stroke-opacity:1;stroke-dasharray:none"
         inkscape:connector-curvature="0" />
      <path
         transform="matrix(1.5714007,0,0,1.1142714,-89.575,552.84686)"
         id="path8762-1"
         d="m 84.105726,202.21949 0,0 0,-176.699539 9.445028,0 0,176.699539"
         clip-path="url(#clipEmfPath10-11-1)"
         style="fill:#ff6600;stroke:#000000;stroke-width:0.67979038px;stroke-linecap:round;stroke-linejoin:round;stroke-opacity:1;stroke-dasharray:none"
         inkscape:connector-curvature="0" />
      <path
         transform="matrix(1.5714007,0,0,1.1142714,-86.66,552.84686)"
         id="path8770-5"
         d="m 96.099412,202.21949 0,0 0,-174.460947 9.445028,0 0,174.460947"
         clip-path="url(#clipEmfPath18-6-9)"
         style="fill:#71c837;stroke:#000000;stroke-width:0.67979038px;stroke-linecap:round;stroke-linejoin:round;stroke-opacity:1;stroke-dasharray:none"
         inkscape:connector-curvature="0" />
      <path
         transform="matrix(1.5714007,0,0,1.1142714,-102.595,552.84686)"
         id="path8786-2"
         d="m 120.08679,202.21949 0,0 0,-175.953342 9.44502,0 0,175.953342"
         clip-path="url(#clipEmfPath34-7-0)"
         style="fill:#5599ff;stroke:#000000;stroke-width:0.67979038px;stroke-linecap:round;stroke-linejoin:round;stroke-opacity:1;stroke-dasharray:none"
         inkscape:connector-curvature="0" />
      <path
         transform="matrix(1.5714007,0,0,1.1142714,-99.682,552.84686)"
         id="path8794-1"
         d="m 132.08047,202.21949 0,0 0,-176.699539 9.44503,0 0,176.699539"
         clip-path="url(#clipEmfPath42-9-1)"
         style="fill:#333333;stroke:#000000;stroke-width:0.67979038px;stroke-linecap:round;stroke-linejoin:round;stroke-opacity:1;stroke-dasharray:none"
         inkscape:connector-curvature="0" />
      <text
         sodipodi:linespacing="125%"
         id="text9620-1-0"
         y="819.854"
         x="201.81245"
         style="font-size:25.14241219px;font-style:normal;font-weight:normal;text-align:center;line-height:125%;letter-spacing:0px;word-spacing:0px;text-anchor:middle;fill:#000000;fill-opacity:1;stroke:none;font-family:Sans"
         xml:space="preserve"><tspan
           id="tspan9624-7-0"
           y="819.854"
           x="201.81245"
           sodipodi:role="line">True</tspan><tspan
           id="tspan19767-3-1"
           y="851.28204"
           x="201.81245"
           sodipodi:role="line">Negative</tspan></text>
      <path
         id="path81393-6-2-8-1-3"
         style="fill:none;stroke:#000000;stroke-width:1;stroke-linecap:butt;stroke-linejoin:miter;stroke-miterlimit:4;stroke-opacity:1;stroke-dasharray:none;display:inline"
         d="m 253.962,786.05821 c 0,0 -0.09,1.2161 -0.253,1.79359 -0.142,0.50408 -0.44,0.98683 -0.833,1.35584 -0.498,0.46778 -1.176,0.73914 -1.825,0.9923 -0.72,0.28017 -1.484,0.47289 -2.256,0.56846 -14.291,1.77059 -28.95,-1.77059 -43.24,0 -0.564,0.0699 -1.157,0.14835 -1.652,0.41644 -0.483,0.26249 -0.903,0.65904 -1.181,1.11369 -0.278,0.4493 -0.366,0.98902 -0.439,1.50337 0,0.42937 0,0.90052 0,0.90052 m -51.677,-8.64421 c 0,0 0.09,1.2161 0.253,1.79359 0.141,0.50408 0.442,0.98683 0.833,1.35584 0.497,0.46778 1.176,0.73914 1.825,0.9923 0.719,0.28017 1.484,0.47289 2.255,0.56846 14.291,1.77059 28.949,-1.77059 43.24,0 0.565,0.0699 1.159,0.14835 1.651,0.41644 0.484,0.26249 0.906,0.65904 1.183,1.11369 0.277,0.4493 0.367,0.98902 0.437,1.50337 0,0.36452 0,0.90052 0,0.90052"
         inkscape:connector-curvature="0"
         sodipodi:nodetypes="cssssssscccssssssscc" />
      <path
         transform="matrix(1.5714007,0,0,1.1142714,-218.243,552.84686)"
         id="path8758-9"
         d="m 235.22617,202.21949 0,0 0,-176.699539 9.44503,0 0,176.699539"
         clip-path="url(#clipEmfPath6-45-1)"
         style="fill:#ff0000;stroke:#000000;stroke-width:0.67979038px;stroke-linecap:round;stroke-linejoin:round;stroke-opacity:1;stroke-dasharray:none"
         inkscape:connector-curvature="0" />
      <path
         transform="matrix(1.5714007,0,0,1.1142714,-215.329,552.84686)"
         id="path8766-7"
         d="m 247.21986,202.21949 0,0 0,-176.5503 9.44503,0 0,176.5503"
         clip-path="url(#clipEmfPath14-42-8)"
         style="fill:#ff6600;stroke:#000000;stroke-width:0.67979038px;stroke-linecap:round;stroke-linejoin:round;stroke-opacity:1;stroke-dasharray:none"
         inkscape:connector-curvature="0" />
      <path
         transform="matrix(1.5714007,0,0,1.1142714,-212.417,552.84686)"
         id="path8774-2"
         d="m 259.21355,202.21949 0,0 0,-176.699539 9.44503,0 0,176.699539"
         clip-path="url(#clipEmfPath22-18-1)"
         style="fill:#71c837;stroke:#000000;stroke-width:0.67979038px;stroke-linecap:round;stroke-linejoin:round;stroke-opacity:1;stroke-dasharray:none"
         inkscape:connector-curvature="0" />
      <path
         transform="matrix(1.5714007,0,0,1.1142714,-228.351,552.84686)"
         id="path8790-4"
         d="m 283.20092,202.21949 0,0 0,-176.699539 9.44503,0 0,176.699539"
         clip-path="url(#clipEmfPath38-7-6)"
         style="fill:#5599ff;stroke:#000000;stroke-width:0.67979038px;stroke-linecap:round;stroke-linejoin:round;stroke-opacity:1;stroke-dasharray:none"
         inkscape:connector-curvature="0" />
      <path
         transform="matrix(1.5714007,0,0,1.1142714,-225.437,552.84686)"
         id="path8798-3"
         d="m 295.19461,202.21949 0,0 0,-176.5503 9.44502,0 0,176.5503"
         clip-path="url(#clipEmfPath46-0-0)"
         style="fill:#333333;stroke:#000000;stroke-width:0.67979038px;stroke-linecap:round;stroke-linejoin:round;stroke-opacity:1;stroke-dasharray:none"
         inkscape:connector-curvature="0" />
      <path
         id="path8802-3"
         d="m 11.41,778.34056 514.755,0"
         style="fill:none;stroke:#000000;stroke-width:0.8995266px;stroke-linecap:round;stroke-linejoin:round;stroke-opacity:1;stroke-dasharray:none"
         inkscape:connector-curvature="0" />
      <path
         id="path8820-5"
         d="m 11.41,778.34056 0,-199.55194"
         style="fill:none;stroke:#000000;stroke-width:0.8995266px;stroke-linecap:round;stroke-linejoin:round;stroke-opacity:1;stroke-dasharray:none"
         inkscape:connector-curvature="0" />
      <path
         id="path8822-5"
         d="m 11.41,760.38089 -8.01,0"
         style="fill:none;stroke:#000000;stroke-width:0.8995266px;stroke-linecap:round;stroke-linejoin:round;stroke-opacity:1;stroke-dasharray:none"
         inkscape:connector-curvature="0" />
      <path
         id="path8826-3"
         d="m 11.41,700.6816 -8.01,0"
         style="fill:none;stroke:#000000;stroke-width:0.8995266px;stroke-linecap:round;stroke-linejoin:round;stroke-opacity:1;stroke-dasharray:none"
         inkscape:connector-curvature="0" />
      <path
         id="path8830-0"
         d="m 11.41,640.98231 -8.01,0"
         style="fill:none;stroke:#000000;stroke-width:0.8995266px;stroke-linecap:round;stroke-linejoin:round;stroke-opacity:1;stroke-dasharray:none"
         inkscape:connector-curvature="0" />
      <path
         id="path8834-9"
         d="m 11.41,581.28301 -8.01,0"
         style="fill:none;stroke:#000000;stroke-width:0.8995266px;stroke-linecap:round;stroke-linejoin:round;stroke-opacity:1;stroke-dasharray:none"
         inkscape:connector-curvature="0" />
      <text
         sodipodi:linespacing="125%"
         id="text9626-0-0"
         y="822.35229"
         x="461.99603"
         style="font-size:25.14241219px;font-style:normal;font-weight:normal;text-align:center;line-height:125%;letter-spacing:0px;word-spacing:0px;text-anchor:middle;fill:#000000;fill-opacity:1;stroke:none;font-family:Sans"
         xml:space="preserve"><tspan
           id="tspan9630-0-1"
           y="822.35229"
           x="461.99603"
           sodipodi:role="line">False</tspan><tspan
           id="tspan19771-4-6"
           y="853.78033"
           x="461.99603"
           sodipodi:role="line">Positive</tspan></text>
      <path
         id="path81393-6-2-28-2-0"
         style="fill:none;stroke:#000000;stroke-width:1;stroke-linecap:butt;stroke-linejoin:miter;stroke-miterlimit:4;stroke-opacity:1;stroke-dasharray:none;display:inline"
         d="m 515.084,786.05821 c 0,0 -0.09,1.2161 -0.254,1.79359 -0.14,0.50408 -0.44,0.98683 -0.831,1.35584 -0.499,0.46778 -1.178,0.73914 -1.828,0.9923 -0.719,0.28017 -1.481,0.47289 -2.253,0.56846 -14.291,1.77059 -28.951,-1.77059 -43.241,0 -0.564,0.0699 -1.157,0.14835 -1.651,0.41644 -0.483,0.26249 -0.905,0.65904 -1.182,1.11369 -0.277,0.4493 -0.367,0.98902 -0.438,1.50337 0,0.42937 0,0.90052 0,0.90052 m -51.678,-8.64421 c 0,0 0.09,1.2161 0.253,1.79359 0.142,0.50408 0.442,0.98683 0.834,1.35584 0.496,0.46778 1.174,0.73914 1.825,0.9923 0.719,0.28017 1.484,0.47289 2.254,0.56846 14.291,1.77059 28.95,-1.77059 43.241,0 0.564,0.0699 1.159,0.14835 1.65,0.41644 0.485,0.26249 0.905,0.65904 1.183,1.11369 0.278,0.4493 0.366,0.98902 0.438,1.50337 0,0.36452 0,0.90052 0,0.90052"
         inkscape:connector-curvature="0"
         sodipodi:nodetypes="cssssssscccssssssscc" />
      <path
         transform="matrix(1.5714007,0,0,1.1142714,-82.366,552.84686)"
         id="path8768-9"
         d="m 328.77693,202.21949 0,0 0,-18.05797 9.44503,0 0,18.05797"
         clip-path="url(#clipEmfPath16-22-3)"
         style="color:#000000;fill:#ff6600;fill-opacity:1;fill-rule:nonzero;stroke:#000000;stroke-width:0.67979038px;stroke-linecap:round;stroke-linejoin:round;stroke-miterlimit:4;stroke-opacity:1;stroke-dasharray:none;stroke-dashoffset:0;marker:none;visibility:visible;display:inline;overflow:visible;enable-background:accumulate"
         inkscape:connector-curvature="0" />
      <path
         transform="matrix(1.5714007,0,0,1.1142714,-92.474,552.84686)"
         id="path8800-1"
         d="m 376.75167,202.21949 0,0 0,-47.60739 9.44503,0 0,47.60739"
         clip-path="url(#clipEmfPath48-86-1)"
         style="fill:#333333;stroke:#000000;stroke-width:0.67979038px;stroke-linecap:round;stroke-linejoin:round;stroke-opacity:1;stroke-dasharray:none"
         inkscape:connector-curvature="0" />
      <text
         id="text8824-7"
         style="font-size:19.96035576px;font-style:normal;font-weight:bold;text-align:end;text-anchor:end;fill:#000000;stroke-linecap:square;stroke-linejoin:round;font-family:Arial;-inkscape-font-specification:Arial Bold"
         y="767.35919"
         x="-1.6484843"
         xml:space="preserve">0.1 %</text>
      <text
         id="text8828-4"
         style="font-size:19.96035576px;font-style:normal;font-weight:bold;text-align:end;text-anchor:end;fill:#000000;stroke-linecap:square;stroke-linejoin:round;font-family:Arial;-inkscape-font-specification:Arial Bold"
         y="707.65997"
         x="-1.6484843"
         xml:space="preserve">1 %</text>
      <text
         id="text8832-1"
         style="font-size:19.96035576px;font-style:normal;font-weight:bold;text-align:end;text-anchor:end;fill:#000000;stroke-linecap:square;stroke-linejoin:round;font-family:Arial;-inkscape-font-specification:Arial Bold"
         y="647.96063"
         x="-1.6484843"
         xml:space="preserve">10 %</text>
      <text
         id="text8836-0"
         style="font-size:19.96035576px;font-style:normal;font-weight:bold;text-align:end;text-anchor:end;fill:#000000;stroke-linecap:square;stroke-linejoin:round;font-family:Arial;-inkscape-font-specification:Arial Bold"
         y="588.26135"
         x="-1.6484843"
         xml:space="preserve">100 %</text>
      <text
         sodipodi:linespacing="125%"
         id="text9614-6-8-3"
         y="819.17529"
         x="332.37299"
         style="font-size:25.14241219px;font-style:normal;font-weight:normal;text-align:center;line-height:125%;letter-spacing:0px;word-spacing:0px;text-anchor:middle;fill:#000000;fill-opacity:1;stroke:none;font-family:Sans"
         xml:space="preserve"><tspan
           id="tspan9618-1-3-6"
           y="819.17529"
           x="332.37299"
           sodipodi:role="line">False</tspan><tspan
           id="tspan19763-1-4-5"
           y="850.60333"
           x="332.37299"
           sodipodi:role="line">Negative</tspan></text>
      <path
         id="path81393-6-2-2-0-5-7"
         style="fill:none;stroke:#000000;stroke-width:1;stroke-linecap:butt;stroke-linejoin:miter;stroke-miterlimit:4;stroke-opacity:1;stroke-dasharray:none;display:inline"
         d="m 384.523,785.37951 c 0,0 -0.09,1.21609 -0.252,1.79358 -0.143,0.50409 -0.44,0.98684 -0.833,1.35584 -0.498,0.46779 -1.178,0.73915 -1.826,0.99231 -0.72,0.28017 -1.484,0.47289 -2.255,0.56846 -14.291,1.77058 -28.95,-1.77059 -43.241,0 -0.565,0.0699 -1.157,0.14835 -1.651,0.41644 -0.483,0.26249 -0.903,0.65903 -1.182,1.11368 -0.277,0.4493 -0.367,0.98902 -0.438,1.50337 0,0.42937 0,0.90053 0,0.90053 m -51.677,-8.64421 c 0,0 0.104,1.21609 0.252,1.79358 0.142,0.50409 0.442,0.98684 0.833,1.35584 0.497,0.46779 1.175,0.73915 1.826,0.99231 0.718,0.28017 1.484,0.47289 2.254,0.56846 14.291,1.77058 28.95,-1.77059 43.242,0 0.564,0.0699 1.157,0.14835 1.65,0.41644 0.483,0.26249 0.905,0.65903 1.183,1.11368 0.276,0.4493 0.366,0.98902 0.437,1.50337 0,0.36453 0,0.90053 0,0.90053"
         inkscape:connector-curvature="0"
         sodipodi:nodetypes="cssssssscccssssssscc" />
      <path
         transform="matrix(1.5714007,0,0,1.1142714,46.303,552.3656)"
         id="path8772-0-6"
         d="m 177.65648,202.21949 0,0 0,-121.182454 9.44503,0 0,121.182454"
         clip-path="url(#clipEmfPath20-5-3-2)"
         style="fill:#71c837;stroke:#000000;stroke-width:0.67979038px;stroke-linecap:round;stroke-linejoin:round;stroke-opacity:1;stroke-dasharray:none"
         inkscape:connector-curvature="0" />
      <path
         transform="matrix(1.5714007,0,0,1.1142714,52.13,552.3656)"
         id="path8788-1-5"
         d="m 201.64385,202.21949 0,0 0,-91.93152 9.44503,0 0,91.93152"
         clip-path="url(#clipEmfPath36-2-1-9)"
         style="fill:#333333;stroke:#000000;stroke-width:0.67979038px;stroke-linecap:round;stroke-linejoin:round;stroke-opacity:1;stroke-dasharray:none"
         inkscape:connector-curvature="0" />
    </g>
  </g>
</svg>
