<?xml version="1.0" encoding="UTF-8" standalone="no"?>
<!-- Created with Inkscape (http://www.inkscape.org/) -->

<svg
   xmlns:dc="http://purl.org/dc/elements/1.1/"
   xmlns:cc="http://creativecommons.org/ns#"
   xmlns:rdf="http://www.w3.org/1999/02/22-rdf-syntax-ns#"
   xmlns:svg="http://www.w3.org/2000/svg"
   xmlns="http://www.w3.org/2000/svg"
   xmlns:sodipodi="http://sodipodi.sourceforge.net/DTD/sodipodi-0.dtd"
   xmlns:inkscape="http://www.inkscape.org/namespaces/inkscape"
   id="svg2"
   version="1.1"
   inkscape:version="0.91 r13725"
   xml:space="preserve"
   width="1799.1163"
   height="637.1908"
   viewBox="0 0 1799.1163 637.1908"
   sodipodi:docname="logit.svg"
   inkscape:export-filename="/home/aleg/Drive/EBI/Presentations/presentation_repo/2017_12_05_Nanopore_modifs_Team_meeting/images/logit.png"
   inkscape:export-xdpi="100.00144"
   inkscape:export-ydpi="100.00144"><metadata
     id="metadata8"><rdf:RDF><cc:Work
         rdf:about=""><dc:format>image/svg+xml</dc:format><dc:type
           rdf:resource="http://purl.org/dc/dcmitype/StillImage" /><dc:title></dc:title></cc:Work></rdf:RDF></metadata><defs
     id="defs6"><clipPath
       clipPathUnits="userSpaceOnUse"
       id="clipPath36"><path
         d="M 0,0 504,0 504,504 0,504 0,0 Z"
         id="path38"
         inkscape:connector-curvature="0" /></clipPath><clipPath
       clipPathUnits="userSpaceOnUse"
       id="clipPath48"><path
         d="m 41.48,30.43 318.49,0 0,468.09 -318.49,0 0,-468.09 z"
         id="path50"
         inkscape:connector-curvature="0" /></clipPath></defs><sodipodi:namedview
     pagecolor="#ffffff"
     bordercolor="#666666"
     borderopacity="1"
     objecttolerance="10"
     gridtolerance="10"
     guidetolerance="10"
     inkscape:pageopacity="0"
     inkscape:pageshadow="2"
     inkscape:window-width="2560"
     inkscape:window-height="1376"
     id="namedview4"
     showgrid="false"
     fit-margin-top="10"
     fit-margin-left="500"
     fit-margin-right="500"
     fit-margin-bottom="10"
     inkscape:zoom="0.44886533"
     inkscape:cx="160.06565"
     inkscape:cy="547.64919"
     inkscape:window-x="0"
     inkscape:window-y="27"
     inkscape:window-maximized="1"
     inkscape:current-layer="g10" /><g
     id="g10"
     inkscape:groupmode="layer"
     inkscape:label="logit"
     transform="matrix(1.25,0,0,-1.25,493.29875,633.94952)"><g
       id="g12" /><g
       id="g14" /><g
       id="g16" /><g
       id="g18" /><g
       id="g20" /><g
       id="g22" /><g
       id="g24" /><g
       id="g26" /><g
       id="g28" /><g
       id="g30" /><g
       id="g42" /><g
       id="g114" /><g
       id="g116" /><g
       id="g118" /><g
       id="g120" /><g
       id="g122" /><g
       id="g124" /><g
       id="g126" /><g
       id="g128" /><g
       id="g130" /><g
       id="g132" /><g
       id="g134" /><g
       id="g136" /><g
       id="g138" /><g
       id="g140" /><g
       id="g142" /><g
       id="g166" /><g
       id="g180" /><g
       id="g182" /><g
       id="g184" /><g
       id="g186" /><g
       id="g188" /><g
       id="g190" /><g
       id="g192" /><g
       id="g194" /><g
       id="g196" /><g
       id="g210" /><g
       id="g234" /><g
       id="g236" /><g
       id="g238" /><g
       id="g240" /><g
       id="g242" /><g
       id="g250" /><g
       id="g258" /><g
       id="g260" /><g
       id="g262" /><g
       id="g264" /><g
       id="g266" /><g
       id="g268" /><g
       id="g270" /><g
       id="g276" /><g
       id="g284" /><g
       id="g290" /><g
       id="g296" /><g
       id="g302" /><g
       id="g308" /><g
       id="g314" /><g
       id="g320" /><g
       id="g326" /><g
       id="g332" /><g
       id="g338" /><g
       id="g344" /><g
       id="g350" /><g
       id="g356" /><g
       id="g362" /><g
       id="g368" /><g
       id="g374" /><g
       id="g380" /><g
       id="g386" /><g
       id="g392" /><g
       id="g398" /><g
       id="g404" /><g
       id="g410" /><g
       id="g416" /><g
       id="g424" /><g
       id="g432" /><g
       id="g440" /><g
       id="g448" /><g
       id="g456" /><g
       id="g464" /><g
       id="g472" /><g
       id="g480" /><g
       id="g488" /><g
       id="g496" /><g
       id="g4735"><path
         inkscape:connector-curvature="0"
         id="path52"
         style="fill:#ffffff;fill-opacity:1;fill-rule:nonzero;stroke:none"
         d="m 41.48,30.43 455.22782,0 0,468.09 -455.22782,0 0,-468.09 z" /><path
         inkscape:connector-curvature="0"
         id="path54"
         style="fill:none;stroke:#ebebeb;stroke-width:0.63363963;stroke-linecap:butt;stroke-linejoin:round;stroke-miterlimit:10;stroke-dasharray:none;stroke-opacity:1"
         d="m 41.48,104.9 455.24211,0" /><path
         inkscape:connector-curvature="0"
         id="path56"
         style="fill:none;stroke:#ebebeb;stroke-width:0.63363963;stroke-linecap:butt;stroke-linejoin:round;stroke-miterlimit:10;stroke-dasharray:none;stroke-opacity:1"
         d="m 41.48,211.28 455.24211,0" /><path
         inkscape:connector-curvature="0"
         id="path58"
         style="fill:none;stroke:#ebebeb;stroke-width:0.63363963;stroke-linecap:butt;stroke-linejoin:round;stroke-miterlimit:10;stroke-dasharray:none;stroke-opacity:1"
         d="m 41.48,317.67 455.24211,0" /><path
         inkscape:connector-curvature="0"
         id="path60"
         style="fill:none;stroke:#ebebeb;stroke-width:0.63363963;stroke-linecap:butt;stroke-linejoin:round;stroke-miterlimit:10;stroke-dasharray:none;stroke-opacity:1"
         d="m 41.48,424.05 455.24211,0" /><path
         inkscape:connector-curvature="0"
         id="path62"
         style="fill:none;stroke:#ebebeb;stroke-width:0.63363963;stroke-linecap:butt;stroke-linejoin:round;stroke-miterlimit:10;stroke-dasharray:none;stroke-opacity:1"
         d="m 113.90423,30.43 0,468.09" /><path
         inkscape:connector-curvature="0"
         id="path64"
         style="fill:none;stroke:#ebebeb;stroke-width:0.63363963;stroke-linecap:butt;stroke-linejoin:round;stroke-miterlimit:10;stroke-dasharray:none;stroke-opacity:1"
         d="m 217.37355,30.43 0,468.09" /><path
         inkscape:connector-curvature="0"
         id="path66"
         style="fill:none;stroke:#ebebeb;stroke-width:0.63363963;stroke-linecap:butt;stroke-linejoin:round;stroke-miterlimit:10;stroke-dasharray:none;stroke-opacity:1"
         d="m 320.82857,30.43 0,468.09" /><path
         inkscape:connector-curvature="0"
         id="path68"
         style="fill:none;stroke:#ebebeb;stroke-width:0.63363963;stroke-linecap:butt;stroke-linejoin:round;stroke-miterlimit:10;stroke-dasharray:none;stroke-opacity:1"
         d="m 424.29788,30.43 0,468.09" /><path
         inkscape:connector-curvature="0"
         id="path70"
         style="fill:none;stroke:#ebebeb;stroke-width:1.27923489;stroke-linecap:butt;stroke-linejoin:round;stroke-miterlimit:10;stroke-dasharray:none;stroke-opacity:1"
         d="m 41.48,51.71 455.24211,0" /><path
         inkscape:connector-curvature="0"
         id="path72"
         style="fill:none;stroke:#ebebeb;stroke-width:1.27923489;stroke-linecap:butt;stroke-linejoin:round;stroke-miterlimit:10;stroke-dasharray:none;stroke-opacity:1"
         d="m 41.48,158.09 455.24211,0" /><path
         inkscape:connector-curvature="0"
         id="path74"
         style="fill:none;stroke:#ebebeb;stroke-width:1.27923489;stroke-linecap:butt;stroke-linejoin:round;stroke-miterlimit:10;stroke-dasharray:none;stroke-opacity:1"
         d="m 41.48,264.48 455.24211,0" /><path
         inkscape:connector-curvature="0"
         id="path76"
         style="fill:none;stroke:#ebebeb;stroke-width:1.27923489;stroke-linecap:butt;stroke-linejoin:round;stroke-miterlimit:10;stroke-dasharray:none;stroke-opacity:1"
         d="m 41.48,370.86 455.24211,0" /><path
         inkscape:connector-curvature="0"
         id="path78"
         style="fill:none;stroke:#ebebeb;stroke-width:1.27923489;stroke-linecap:butt;stroke-linejoin:round;stroke-miterlimit:10;stroke-dasharray:none;stroke-opacity:1"
         d="m 41.48,477.24 455.24211,0" /><path
         inkscape:connector-curvature="0"
         id="path80"
         style="fill:none;stroke:#ebebeb;stroke-width:1.27923489;stroke-linecap:butt;stroke-linejoin:round;stroke-miterlimit:10;stroke-dasharray:none;stroke-opacity:1"
         d="m 62.176721,30.43 0,468.09" /><path
         inkscape:connector-curvature="0"
         id="path82"
         style="fill:none;stroke:#ebebeb;stroke-width:1.27923489;stroke-linecap:butt;stroke-linejoin:round;stroke-miterlimit:10;stroke-dasharray:none;stroke-opacity:1"
         d="m 165.63174,30.43 0,468.09" /><path
         inkscape:connector-curvature="0"
         id="path84"
         style="fill:none;stroke:#ebebeb;stroke-width:1.27923489;stroke-linecap:butt;stroke-linejoin:round;stroke-miterlimit:10;stroke-dasharray:none;stroke-opacity:1"
         d="m 269.10106,30.43 0,468.09" /><path
         inkscape:connector-curvature="0"
         id="path86"
         style="fill:none;stroke:#ebebeb;stroke-width:1.27923489;stroke-linecap:butt;stroke-linejoin:round;stroke-miterlimit:10;stroke-dasharray:none;stroke-opacity:1"
         d="m 372.57037,30.43 0,468.09" /><path
         inkscape:connector-curvature="0"
         id="path88"
         style="fill:none;stroke:#ebebeb;stroke-width:1.27923489;stroke-linecap:butt;stroke-linejoin:round;stroke-miterlimit:10;stroke-dasharray:none;stroke-opacity:1"
         d="m 476.02539,30.43 0,468.09" /><path
         inkscape:connector-curvature="0"
         id="path90"
         style="fill:none;stroke:#f8766d;stroke-width:1.27923489;stroke-linecap:butt;stroke-linejoin:round;stroke-miterlimit:1;stroke-dasharray:none;stroke-opacity:1"
         d="m 62.176721,51.71 0,0 0,0 5.345701,17.57 57.230438,109.34 244.54434,276.15 34.44689,10.98 38.42044,7.61 29.90161,3.55 3.95925,0.33 0,0" /><path
         inkscape:connector-curvature="0"
         id="path92"
         style="fill:none;stroke:#db8e00;stroke-width:1.27923489;stroke-linecap:butt;stroke-linejoin:round;stroke-miterlimit:1;stroke-dasharray:none;stroke-opacity:1"
         d="m 62.176721,51.71 0,0 0,0 5.545807,17.91 53.071082,100.55 251.4766,285.44 32.47442,10.31 37.21979,7.44 27.12871,3.38 6.93226,0.5 0,0" /><path
         inkscape:connector-curvature="0"
         id="path94"
         style="fill:none;stroke:#aea200;stroke-width:1.27923489;stroke-linecap:butt;stroke-linejoin:round;stroke-miterlimit:1;stroke-dasharray:none;stroke-opacity:1"
         d="m 62.176721,51.71 0,0 0,0 8.718923,25.18 55.629586,104.1 241.58563,272.59 33.86086,11.5 33.06044,7.26 30.70205,4.4 10.29118,0.5 0,0" /><path
         inkscape:connector-curvature="0"
         id="path96"
         style="fill:none;stroke:#64b200;stroke-width:1.27923489;stroke-linecap:butt;stroke-linejoin:round;stroke-miterlimit:1;stroke-dasharray:none;stroke-opacity:1"
         d="m 62.176721,51.71 0,0 0,0 6.932259,21.46 51.87044,98.19 250.69047,283.58 30.88786,10.47 36.63377,7.61 27.32882,3.72 9.50505,0.5 0,0" /><path
         inkscape:connector-curvature="0"
         id="path98"
         style="fill:none;stroke:#00bd5c;stroke-width:1.27923489;stroke-linecap:butt;stroke-linejoin:round;stroke-miterlimit:1;stroke-dasharray:none;stroke-opacity:1"
         d="m 62.176721,51.71 0,0 0,0 9.505055,27.04 55.643884,102.58 240.58509,272.09 33.26055,11.32 32.2886,7.26 29.88732,4.57 12.67817,0.67 0,0" /><path
         inkscape:connector-curvature="0"
         id="path100"
         style="fill:none;stroke:#00c1a7;stroke-width:1.27923489;stroke-linecap:butt;stroke-linejoin:round;stroke-miterlimit:1;stroke-dasharray:none;stroke-opacity:1"
         d="m 62.176721,51.71 0,0 0,0 7.332471,22.14 51.670338,97.51 250.29026,283.58 30.88785,10.47 35.06151,7.27 28.90108,4.06 9.70516,0.5 0,0" /><path
         inkscape:connector-curvature="0"
         id="path102"
         style="fill:none;stroke:#00bade;stroke-width:1.27923489;stroke-linecap:butt;stroke-linejoin:round;stroke-miterlimit:1;stroke-dasharray:none;stroke-opacity:1"
         d="m 62.176721,51.71 0,0 0,0 9.505055,28.9 55.643884,101.06 240.18488,271.75 32.47441,10.98 32.47442,7.27 29.11548,4.9 14.45054,0.67 0,0" /><path
         inkscape:connector-curvature="0"
         id="path104"
         style="fill:none;stroke:#00a6ff;stroke-width:1.27923489;stroke-linecap:butt;stroke-linejoin:round;stroke-miterlimit:1;stroke-dasharray:none;stroke-opacity:1"
         d="m 62.176721,51.71 0,0 0,0 7.718391,22.47 51.284418,97.35 250.29026,283.41 30.88785,10.3 34.46119,7.44 29.10119,4.06 10.10537,0.5 0,0" /><path
         inkscape:connector-curvature="0"
         id="path106"
         style="fill:none;stroke:#b385ff;stroke-width:1.27923489;stroke-linecap:butt;stroke-linejoin:round;stroke-miterlimit:1;stroke-dasharray:none;stroke-opacity:1"
         d="m 62.176721,51.71 0,0 0,0 7.718391,22.81 51.484528,97.34 250.09015,283.08 30.88785,10.3 34.26108,7.1 29.11549,4.4 10.29118,0.5 0,0" /><path
         inkscape:connector-curvature="0"
         id="path108"
         style="fill:none;stroke:#ef67eb;stroke-width:1.27923489;stroke-linecap:butt;stroke-linejoin:round;stroke-miterlimit:1;stroke-dasharray:none;stroke-opacity:1"
         d="m 62.176721,51.71 0,0 0,0 0,0 62.376029,129.45 243.75821,272.76 92.07755,22.48 15.63688,0.84 0,0 0,0 0,0" /><path
         inkscape:connector-curvature="0"
         id="path4652"
         d="M 476.02539,477.24 62.176721,51.71 l 0,0 0,0"
         style="fill:#999999;stroke:#999999;stroke-width:1.27923489;stroke-linecap:butt;stroke-linejoin:round;stroke-miterlimit:1;stroke-dasharray:none;stroke-opacity:1" /><path
         inkscape:connector-curvature="0"
         id="path110"
         d="m 62.176721,51.71 7.718391,22.98 51.484528,97.34 250.09015,282.91 30.88785,10.3 34.26108,7.1 29.11549,4.4 10.29118,0.5 0,0"
         style="fill:none;stroke:#ff63b6;stroke-width:1.27923489;stroke-linecap:butt;stroke-linejoin:round;stroke-miterlimit:1;stroke-dasharray:none;stroke-opacity:1" /><path
         inkscape:connector-curvature="0"
         id="path112"
         style="fill:none;stroke:#333333;stroke-width:1.27923489;stroke-linecap:round;stroke-linejoin:round;stroke-miterlimit:10;stroke-dasharray:none;stroke-opacity:1"
         d="m 41.48,30.43 455.22782,0 0,468.09 -455.22782,0 0,-468.09 z" /><g
         id="g144"><text
           id="text146"
           style="font-variant:normal;font-weight:normal;font-size:9px;font-family:Helvetica;-inkscape-font-specification:Helvetica;writing-mode:lr-tb;fill:#4d4d4d;fill-opacity:1;fill-rule:nonzero;stroke:none"
           transform="matrix(1,0,0,-1,19.04,48.48)"><tspan
             id="tspan148"
             sodipodi:role="line"
             y="0"
             x="0 5.0040002 7.506 12.51">0.00</tspan></text>
<text
           id="text150"
           style="font-variant:normal;font-weight:normal;font-size:9px;font-family:Helvetica;-inkscape-font-specification:Helvetica;writing-mode:lr-tb;fill:#4d4d4d;fill-opacity:1;fill-rule:nonzero;stroke:none"
           transform="matrix(1,0,0,-1,19.04,154.86)"><tspan
             id="tspan152"
             sodipodi:role="line"
             y="0"
             x="0 5.0040002 7.506 12.51">0.25</tspan></text>
<text
           id="text154"
           style="font-variant:normal;font-weight:normal;font-size:9px;font-family:Helvetica;-inkscape-font-specification:Helvetica;writing-mode:lr-tb;fill:#4d4d4d;fill-opacity:1;fill-rule:nonzero;stroke:none"
           transform="matrix(1,0,0,-1,19.04,261.24)"><tspan
             id="tspan156"
             sodipodi:role="line"
             y="0"
             x="0 5.0040002 7.506 12.51">0.50</tspan></text>
<text
           id="text158"
           style="font-variant:normal;font-weight:normal;font-size:9px;font-family:Helvetica;-inkscape-font-specification:Helvetica;writing-mode:lr-tb;fill:#4d4d4d;fill-opacity:1;fill-rule:nonzero;stroke:none"
           transform="matrix(1,0,0,-1,19.04,367.63)"><tspan
             id="tspan160"
             sodipodi:role="line"
             y="0"
             x="0 5.0040002 7.506 12.51">0.75</tspan></text>
<text
           id="text162"
           style="font-variant:normal;font-weight:normal;font-size:9px;font-family:Helvetica;-inkscape-font-specification:Helvetica;writing-mode:lr-tb;fill:#4d4d4d;fill-opacity:1;fill-rule:nonzero;stroke:none"
           transform="matrix(1,0,0,-1,19.04,474.01)"><tspan
             id="tspan164"
             sodipodi:role="line"
             y="0"
             x="0 5.0040002 7.506 12.51">1.00</tspan></text>
</g><g
         id="g168"><path
           inkscape:connector-curvature="0"
           id="path170"
           style="fill:none;stroke:#333333;stroke-width:1.07000005;stroke-linecap:butt;stroke-linejoin:round;stroke-miterlimit:10;stroke-dasharray:none;stroke-opacity:1"
           d="m 38.74,51.71 2.74,0" /><path
           inkscape:connector-curvature="0"
           id="path172"
           style="fill:none;stroke:#333333;stroke-width:1.07000005;stroke-linecap:butt;stroke-linejoin:round;stroke-miterlimit:10;stroke-dasharray:none;stroke-opacity:1"
           d="m 38.74,158.09 2.74,0" /><path
           inkscape:connector-curvature="0"
           id="path174"
           style="fill:none;stroke:#333333;stroke-width:1.07000005;stroke-linecap:butt;stroke-linejoin:round;stroke-miterlimit:10;stroke-dasharray:none;stroke-opacity:1"
           d="m 38.74,264.48 2.74,0" /><path
           inkscape:connector-curvature="0"
           id="path176"
           style="fill:none;stroke:#333333;stroke-width:1.07000005;stroke-linecap:butt;stroke-linejoin:round;stroke-miterlimit:10;stroke-dasharray:none;stroke-opacity:1"
           d="m 38.74,370.86 2.74,0" /><path
           inkscape:connector-curvature="0"
           id="path178"
           style="fill:none;stroke:#333333;stroke-width:1.07000005;stroke-linecap:butt;stroke-linejoin:round;stroke-miterlimit:10;stroke-dasharray:none;stroke-opacity:1"
           d="m 38.74,477.24 2.74,0" /></g><path
         d="m 62.176721,27.69 0,2.74"
         style="fill:none;stroke:#333333;stroke-width:1.07000005;stroke-linecap:butt;stroke-linejoin:round;stroke-miterlimit:10;stroke-dasharray:none;stroke-opacity:1"
         id="path200"
         inkscape:connector-curvature="0" /><path
         d="m 165.63174,27.69 0,2.74"
         style="fill:none;stroke:#333333;stroke-width:1.07000005;stroke-linecap:butt;stroke-linejoin:round;stroke-miterlimit:10;stroke-dasharray:none;stroke-opacity:1"
         id="path202"
         inkscape:connector-curvature="0" /><path
         d="m 269.10106,27.69 0,2.74"
         style="fill:none;stroke:#333333;stroke-width:1.07000005;stroke-linecap:butt;stroke-linejoin:round;stroke-miterlimit:10;stroke-dasharray:none;stroke-opacity:1"
         id="path204"
         inkscape:connector-curvature="0" /><path
         d="m 372.57037,27.69 0,2.74"
         style="fill:none;stroke:#333333;stroke-width:1.07000005;stroke-linecap:butt;stroke-linejoin:round;stroke-miterlimit:10;stroke-dasharray:none;stroke-opacity:1"
         id="path206"
         inkscape:connector-curvature="0" /><path
         d="m 476.02539,27.69 0,2.74"
         style="fill:none;stroke:#333333;stroke-width:1.07000005;stroke-linecap:butt;stroke-linejoin:round;stroke-miterlimit:10;stroke-dasharray:none;stroke-opacity:1"
         id="path208"
         inkscape:connector-curvature="0" /><text
         y="-19.040001"
         x="53.44672"
         transform="scale(1,-1)"
         style="font-variant:normal;font-weight:normal;font-size:9px;font-family:Helvetica;-inkscape-font-specification:Helvetica;writing-mode:lr-tb;fill:#4d4d4d;fill-opacity:1;fill-rule:nonzero;stroke:none"
         id="text214"><tspan
           x="53.44672 58.450718 60.952721 65.956718"
           y="-19.040001"
           sodipodi:role="line"
           id="tspan216">0.00</tspan></text>
<text
         y="-19.040001"
         x="156.87474"
         transform="scale(1,-1)"
         style="font-variant:normal;font-weight:normal;font-size:9px;font-family:Helvetica;-inkscape-font-specification:Helvetica;writing-mode:lr-tb;fill:#4d4d4d;fill-opacity:1;fill-rule:nonzero;stroke:none"
         id="text218"><tspan
           x="156.87474 161.87874 164.38074 169.38475"
           y="-19.040001"
           sodipodi:role="line"
           id="tspan220">0.25</tspan></text>
<text
         y="-19.040001"
         x="260.37106"
         transform="scale(1,-1)"
         style="font-variant:normal;font-weight:normal;font-size:9px;font-family:Helvetica;-inkscape-font-specification:Helvetica;writing-mode:lr-tb;fill:#4d4d4d;fill-opacity:1;fill-rule:nonzero;stroke:none"
         id="text222"><tspan
           x="260.37106 265.37506 267.87704 272.88104"
           y="-19.040001"
           sodipodi:role="line"
           id="tspan224">0.50</tspan></text>
<text
         y="-19.040001"
         x="363.81335"
         transform="scale(1,-1)"
         style="font-variant:normal;font-weight:normal;font-size:9px;font-family:Helvetica;-inkscape-font-specification:Helvetica;writing-mode:lr-tb;fill:#4d4d4d;fill-opacity:1;fill-rule:nonzero;stroke:none"
         id="text226"><tspan
           x="363.81335 368.81738 371.31937 376.32336"
           y="-19.040001"
           sodipodi:role="line"
           id="tspan228">0.75</tspan></text>
<text
         y="-19.040001"
         x="467.02988"
         transform="scale(1,-1)"
         style="font-variant:normal;font-weight:normal;font-size:9px;font-family:Helvetica;-inkscape-font-specification:Helvetica;writing-mode:lr-tb;fill:#4d4d4d;fill-opacity:1;fill-rule:nonzero;stroke:none"
         id="text230"><tspan
           x="467.02988 472.03387 474.53589 479.53989"
           y="-19.040001"
           sodipodi:role="line"
           id="tspan232">1.00</tspan></text>
<g
         transform="translate(68.10591,0)"
         id="g244"><text
           id="text246"
           style="font-variant:normal;font-weight:normal;font-size:11px;font-family:Helvetica;-inkscape-font-specification:Helvetica;writing-mode:lr-tb;fill:#000000;fill-opacity:1;fill-rule:nonzero;stroke:none"
           transform="matrix(1,0,0,-1,154.04,5.66)"><tspan
             id="tspan248"
             sodipodi:role="line"
             y="0"
             x="0 6.171 12.287 14.729 20.229 26.344999 29.403 36.189999 42.306 47.806 50.248001 53.306 55.748001 60.973 67.088997 70.147003 78.088997 84.205002 87.263">False Positive Rate</tspan></text>
</g><g
         id="g252"><text
           id="text254"
           style="font-variant:normal;font-weight:normal;font-size:11px;font-family:Helvetica;-inkscape-font-specification:Helvetica;writing-mode:lr-tb;fill:#000000;fill-opacity:1;fill-rule:nonzero;stroke:none"
           transform="matrix(0,1,1,0,13.38,220.23)"><tspan
             id="tspan256"
             sodipodi:role="line"
             y="0"
             x="0 5.401 9.2290001 15.345 21.461 24.518999 31.306 37.422001 42.922001 45.363998 48.422001 50.863998 56.089001 62.205002 65.263 73.205002 79.320999 82.378998">True Positive Rate</tspan></text>
</g><g
         transform="translate(152.49104,10.082052)"
         id="g278"><text
           id="text280"
           style="font-variant:normal;font-weight:normal;font-size:11px;font-family:Helvetica;-inkscape-font-specification:Helvetica;writing-mode:lr-tb;fill:#000000;fill-opacity:1;fill-rule:nonzero;stroke:none"
           transform="matrix(1,0,0,-1,376.99,357.73)"><tspan
             id="tspan282"
             sodipodi:role="line"
             y="0"
             x="0 6.1160002 11.451 14.509 17.237 23.353001 28.853001 31.910999 38.027 41.689999 45.353001 54.515999 60.632 66.748001 72.863998 75.306">as.factor(Model)</tspan></text>
</g><g
         transform="translate(152.49104,10.082052)"
         id="g286"><path
           inkscape:connector-curvature="0"
           id="path288"
           style="fill:#ffffff;fill-opacity:1;fill-rule:nonzero;stroke:none"
           d="m 376.99,336.13 17.28,0 0,17.28 -17.28,0 0,-17.28 z" /></g><g
         transform="translate(152.49104,10.082052)"
         id="g292"><path
           inkscape:connector-curvature="0"
           id="path294"
           style="fill:none;stroke:#f8766d;stroke-width:1.07000005;stroke-linecap:butt;stroke-linejoin:round;stroke-miterlimit:10;stroke-dasharray:none;stroke-opacity:1"
           d="m 378.71,344.77 13.83,0" /></g><g
         transform="translate(152.49104,10.082052)"
         id="g298"><path
           inkscape:connector-curvature="0"
           id="path300"
           style="fill:#ffffff;fill-opacity:1;fill-rule:nonzero;stroke:none"
           d="m 376.99,318.85 17.28,0 0,17.28 -17.28,0 0,-17.28 z" /></g><g
         transform="translate(152.49104,10.082052)"
         id="g304"><path
           inkscape:connector-curvature="0"
           id="path306"
           style="fill:none;stroke:#db8e00;stroke-width:1.07000005;stroke-linecap:butt;stroke-linejoin:round;stroke-miterlimit:10;stroke-dasharray:none;stroke-opacity:1"
           d="m 378.71,327.49 13.83,0" /></g><g
         transform="translate(152.49104,10.082052)"
         id="g310"><path
           inkscape:connector-curvature="0"
           id="path312"
           style="fill:#ffffff;fill-opacity:1;fill-rule:nonzero;stroke:none"
           d="m 376.99,301.57 17.28,0 0,17.28 -17.28,0 0,-17.28 z" /></g><g
         transform="translate(152.49104,10.082052)"
         id="g316"><path
           inkscape:connector-curvature="0"
           id="path318"
           style="fill:none;stroke:#aea200;stroke-width:1.07000005;stroke-linecap:butt;stroke-linejoin:round;stroke-miterlimit:10;stroke-dasharray:none;stroke-opacity:1"
           d="m 378.71,310.21 13.83,0" /></g><g
         transform="translate(152.49104,10.082052)"
         id="g322"><path
           inkscape:connector-curvature="0"
           id="path324"
           style="fill:#ffffff;fill-opacity:1;fill-rule:nonzero;stroke:none"
           d="m 376.99,284.29 17.28,0 0,17.28 -17.28,0 0,-17.28 z" /></g><g
         transform="translate(152.49104,10.082052)"
         id="g328"><path
           inkscape:connector-curvature="0"
           id="path330"
           style="fill:none;stroke:#64b200;stroke-width:1.07000005;stroke-linecap:butt;stroke-linejoin:round;stroke-miterlimit:10;stroke-dasharray:none;stroke-opacity:1"
           d="m 378.71,292.93 13.83,0" /></g><g
         transform="translate(152.49104,10.082052)"
         id="g334"><path
           inkscape:connector-curvature="0"
           id="path336"
           style="fill:#ffffff;fill-opacity:1;fill-rule:nonzero;stroke:none"
           d="m 376.99,267.01 17.28,0 0,17.28 -17.28,0 0,-17.28 z" /></g><g
         transform="translate(152.49104,10.082052)"
         id="g340"><path
           inkscape:connector-curvature="0"
           id="path342"
           style="fill:none;stroke:#00bd5c;stroke-width:1.07000005;stroke-linecap:butt;stroke-linejoin:round;stroke-miterlimit:10;stroke-dasharray:none;stroke-opacity:1"
           d="m 378.71,275.65 13.83,0" /></g><g
         transform="translate(152.49104,10.082052)"
         id="g346"><path
           inkscape:connector-curvature="0"
           id="path348"
           style="fill:#ffffff;fill-opacity:1;fill-rule:nonzero;stroke:none"
           d="m 376.99,249.73 17.28,0 0,17.28 -17.28,0 0,-17.28 z" /></g><g
         transform="translate(152.49104,10.082052)"
         id="g352"><path
           inkscape:connector-curvature="0"
           id="path354"
           style="fill:none;stroke:#00c1a7;stroke-width:1.07000005;stroke-linecap:butt;stroke-linejoin:round;stroke-miterlimit:10;stroke-dasharray:none;stroke-opacity:1"
           d="m 378.71,258.37 13.83,0" /></g><g
         transform="translate(152.49104,10.082052)"
         id="g358"><path
           inkscape:connector-curvature="0"
           id="path360"
           style="fill:#ffffff;fill-opacity:1;fill-rule:nonzero;stroke:none"
           d="m 376.99,232.45 17.28,0 0,17.28 -17.28,0 0,-17.28 z" /></g><g
         transform="translate(152.49104,10.082052)"
         id="g364"><path
           inkscape:connector-curvature="0"
           id="path366"
           style="fill:none;stroke:#00bade;stroke-width:1.07000005;stroke-linecap:butt;stroke-linejoin:round;stroke-miterlimit:10;stroke-dasharray:none;stroke-opacity:1"
           d="m 378.71,241.09 13.83,0" /></g><g
         transform="translate(152.49104,10.082052)"
         id="g370"><path
           inkscape:connector-curvature="0"
           id="path372"
           style="fill:#ffffff;fill-opacity:1;fill-rule:nonzero;stroke:none"
           d="m 376.99,215.17 17.28,0 0,17.28 -17.28,0 0,-17.28 z" /></g><g
         transform="translate(152.49104,10.082052)"
         id="g376"><path
           inkscape:connector-curvature="0"
           id="path378"
           style="fill:none;stroke:#00a6ff;stroke-width:1.07000005;stroke-linecap:butt;stroke-linejoin:round;stroke-miterlimit:10;stroke-dasharray:none;stroke-opacity:1"
           d="m 378.71,223.81 13.83,0" /></g><g
         transform="translate(152.49104,10.082052)"
         id="g382"><path
           inkscape:connector-curvature="0"
           id="path384"
           style="fill:#ffffff;fill-opacity:1;fill-rule:nonzero;stroke:none"
           d="m 376.99,197.89 17.28,0 0,17.28 -17.28,0 0,-17.28 z" /></g><g
         transform="translate(152.49104,10.082052)"
         id="g388"><path
           inkscape:connector-curvature="0"
           id="path390"
           style="fill:none;stroke:#b385ff;stroke-width:1.07000005;stroke-linecap:butt;stroke-linejoin:round;stroke-miterlimit:10;stroke-dasharray:none;stroke-opacity:1"
           d="m 378.71,206.53 13.83,0" /></g><g
         transform="translate(152.49104,10.082052)"
         id="g394"><path
           inkscape:connector-curvature="0"
           id="path396"
           style="fill:#ffffff;fill-opacity:1;fill-rule:nonzero;stroke:none"
           d="m 376.99,180.61 17.28,0 0,17.28 -17.28,0 0,-17.28 z" /></g><g
         transform="translate(152.49104,10.082052)"
         id="g400"><path
           inkscape:connector-curvature="0"
           id="path402"
           style="fill:none;stroke:#ef67eb;stroke-width:1.07000005;stroke-linecap:butt;stroke-linejoin:round;stroke-miterlimit:10;stroke-dasharray:none;stroke-opacity:1"
           d="m 378.71,189.25 13.83,0" /></g><g
         transform="translate(152.49104,10.082052)"
         id="g406"><path
           inkscape:connector-curvature="0"
           id="path408"
           style="fill:#ffffff;fill-opacity:1;fill-rule:nonzero;stroke:none"
           d="m 376.99,163.33 17.28,0 0,17.28 -17.28,0 0,-17.28 z" /></g><g
         transform="translate(152.49104,10.082052)"
         id="g412"><path
           inkscape:connector-curvature="0"
           id="path414"
           style="fill:none;stroke:#ff63b6;stroke-width:1.07000005;stroke-linecap:butt;stroke-linejoin:round;stroke-miterlimit:10;stroke-dasharray:none;stroke-opacity:1"
           d="m 378.71,171.97 13.83,0" /></g><g
         transform="translate(152.49104,10.082052)"
         id="g418"><text
           id="text420"
           style="font-variant:normal;font-weight:normal;font-size:9px;font-family:Helvetica;-inkscape-font-specification:Helvetica;writing-mode:lr-tb;fill:#000000;fill-opacity:1;fill-rule:nonzero;stroke:none"
           transform="matrix(1,0,0,-1,396.43,341.54)"><tspan
             id="tspan422"
             sodipodi:role="line"
             y="0"
             x="0 6.4980001 11.502 16.506001 21.51 23.507999 28.511999 31.643999 33.641998 38.141998 43.146 48.150002 50.652 53.648998 58.653 60.651001 65.654999 70.658997 75.663002 80.918999 85.922997 88.425003 93.429001">Regularised (alpha=0.1)</tspan></text>
</g><g
         transform="translate(152.49104,10.082052)"
         id="g426"><text
           id="text428"
           style="font-variant:normal;font-weight:normal;font-size:9px;font-family:Helvetica;-inkscape-font-specification:Helvetica;writing-mode:lr-tb;fill:#000000;fill-opacity:1;fill-rule:nonzero;stroke:none"
           transform="matrix(1,0,0,-1,396.43,324.26)"><tspan
             id="tspan430"
             sodipodi:role="line"
             y="0"
             x="0 6.4980001 11.502 16.506001 21.51 23.507999 28.511999 31.643999 33.641998 38.141998 43.146 48.150002 50.652 53.648998 58.653 60.651001 65.654999 70.658997 75.663002 80.918999 85.922997 88.425003 93.429001">Regularised (alpha=0.2)</tspan></text>
</g><g
         transform="translate(152.49104,10.082052)"
         id="g434"><text
           id="text436"
           style="font-variant:normal;font-weight:normal;font-size:9px;font-family:Helvetica;-inkscape-font-specification:Helvetica;writing-mode:lr-tb;fill:#000000;fill-opacity:1;fill-rule:nonzero;stroke:none"
           transform="matrix(1,0,0,-1,396.43,306.98)"><tspan
             id="tspan438"
             sodipodi:role="line"
             y="0"
             x="0 6.4980001 11.502 16.506001 21.51 23.507999 28.511999 31.643999 33.641998 38.141998 43.146 48.150002 50.652 53.648998 58.653 60.651001 65.654999 70.658997 75.663002 80.918999 85.922997 88.425003 93.429001">Regularised (alpha=0.3)</tspan></text>
</g><g
         transform="translate(152.49104,10.082052)"
         id="g442"><text
           id="text444"
           style="font-variant:normal;font-weight:normal;font-size:9px;font-family:Helvetica;-inkscape-font-specification:Helvetica;writing-mode:lr-tb;fill:#000000;fill-opacity:1;fill-rule:nonzero;stroke:none"
           transform="matrix(1,0,0,-1,396.43,289.7)"><tspan
             id="tspan446"
             sodipodi:role="line"
             y="0"
             x="0 6.4980001 11.502 16.506001 21.51 23.507999 28.511999 31.643999 33.641998 38.141998 43.146 48.150002 50.652 53.648998 58.653 60.651001 65.654999 70.658997 75.663002 80.918999 85.922997 88.425003 93.429001">Regularised (alpha=0.4)</tspan></text>
</g><g
         transform="translate(152.49104,10.082052)"
         id="g450"><text
           id="text452"
           style="font-variant:normal;font-weight:normal;font-size:9px;font-family:Helvetica;-inkscape-font-specification:Helvetica;writing-mode:lr-tb;fill:#000000;fill-opacity:1;fill-rule:nonzero;stroke:none"
           transform="matrix(1,0,0,-1,396.43,272.42)"><tspan
             id="tspan454"
             sodipodi:role="line"
             y="0"
             x="0 6.4980001 11.502 16.506001 21.51 23.507999 28.511999 31.643999 33.641998 38.141998 43.146 48.150002 50.652 53.648998 58.653 60.651001 65.654999 70.658997 75.663002 80.918999 85.922997 88.425003 93.429001">Regularised (alpha=0.5)</tspan></text>
</g><g
         transform="translate(152.49104,10.082052)"
         id="g458"><text
           id="text460"
           style="font-variant:normal;font-weight:normal;font-size:9px;font-family:Helvetica;-inkscape-font-specification:Helvetica;writing-mode:lr-tb;fill:#000000;fill-opacity:1;fill-rule:nonzero;stroke:none"
           transform="matrix(1,0,0,-1,396.43,255.14)"><tspan
             id="tspan462"
             sodipodi:role="line"
             y="0"
             x="0 6.4980001 11.502 16.506001 21.51 23.507999 28.511999 31.643999 33.641998 38.141998 43.146 48.150002 50.652 53.648998 58.653 60.651001 65.654999 70.658997 75.663002 80.918999 85.922997 88.425003 93.429001">Regularised (alpha=0.6)</tspan></text>
</g><g
         transform="translate(152.49104,10.082052)"
         id="g466"><text
           id="text468"
           style="font-variant:normal;font-weight:normal;font-size:9px;font-family:Helvetica;-inkscape-font-specification:Helvetica;writing-mode:lr-tb;fill:#000000;fill-opacity:1;fill-rule:nonzero;stroke:none"
           transform="matrix(1,0,0,-1,396.43,237.86)"><tspan
             id="tspan470"
             sodipodi:role="line"
             y="0"
             x="0 6.4980001 11.502 16.506001 21.51 23.507999 28.511999 31.643999 33.641998 38.141998 43.146 48.150002 50.652 53.648998 58.653 60.651001 65.654999 70.658997 75.663002 80.918999 85.922997 88.425003 93.429001">Regularised (alpha=0.7)</tspan></text>
</g><g
         transform="translate(152.49104,10.082052)"
         id="g474"><text
           id="text476"
           style="font-variant:normal;font-weight:normal;font-size:9px;font-family:Helvetica;-inkscape-font-specification:Helvetica;writing-mode:lr-tb;fill:#000000;fill-opacity:1;fill-rule:nonzero;stroke:none"
           transform="matrix(1,0,0,-1,396.43,220.58)"><tspan
             id="tspan478"
             sodipodi:role="line"
             y="0"
             x="0 6.4980001 11.502 16.506001 21.51 23.507999 28.511999 31.643999 33.641998 38.141998 43.146 48.150002 50.652 53.648998 58.653 60.651001 65.654999 70.658997 75.663002 80.918999 85.922997 88.425003 93.429001">Regularised (alpha=0.8)</tspan></text>
</g><g
         transform="translate(152.49104,10.082052)"
         id="g482"><text
           id="text484"
           style="font-variant:normal;font-weight:normal;font-size:9px;font-family:Helvetica;-inkscape-font-specification:Helvetica;writing-mode:lr-tb;fill:#000000;fill-opacity:1;fill-rule:nonzero;stroke:none"
           transform="matrix(1,0,0,-1,396.43,203.3)"><tspan
             id="tspan486"
             sodipodi:role="line"
             y="0"
             x="0 6.4980001 11.502 16.506001 21.51 23.507999 28.511999 31.643999 33.641998 38.141998 43.146 48.150002 50.652 53.648998 58.653 60.651001 65.654999 70.658997 75.663002 80.918999 85.922997 88.425003 93.429001">Regularised (alpha=0.9)</tspan></text>
</g><g
         transform="translate(152.49104,10.082052)"
         id="g490"><text
           id="text492"
           style="font-variant:normal;font-weight:normal;font-size:9px;font-family:Helvetica;-inkscape-font-specification:Helvetica;writing-mode:lr-tb;fill:#000000;fill-opacity:1;fill-rule:nonzero;stroke:none"
           transform="matrix(1,0,0,-1,396.43,186.02)"><tspan
             id="tspan494"
             sodipodi:role="line"
             y="0"
             x="0 6.4980001 11.502 16.506001 21.51 23.507999 28.511999 31.643999 33.641998 38.141998 43.146 48.150002 50.652 53.648998 58.653 60.651001 65.654999 70.658997 75.663002 80.918999 85.922997">Regularised (alpha=0)</tspan></text>
</g><g
         transform="translate(152.49104,10.082052)"
         id="g498"><text
           id="text500"
           style="font-variant:normal;font-weight:normal;font-size:9px;font-family:Helvetica;-inkscape-font-specification:Helvetica;writing-mode:lr-tb;fill:#000000;fill-opacity:1;fill-rule:nonzero;stroke:none"
           transform="matrix(1,0,0,-1,396.43,168.74)"><tspan
             id="tspan502"
             sodipodi:role="line"
             y="0"
             x="0 6.4980001 11.502 16.506001 21.51 23.507999 28.511999 31.643999 33.641998 38.141998 43.146 48.150002 50.652 53.648998 58.653 60.651001 65.654999 70.658997 75.663002 80.918999 85.922997">Regularised (alpha=1)</tspan></text>
</g></g><g
       id="g504" /><g
       id="g506" /><g
       id="g508" /><g
       id="g510" /><g
       id="g512" /><g
       id="g514" /><g
       id="g516" /><g
       id="g518" /><g
       id="g520" /><g
       id="g522" /></g></svg>